# MagicaVoxel @ Ephtracy

# group
g offlever

# material
mtllib offlever.mtl
usemtl palette

# normals
vn -1 0 0
vn 1 0 0
vn 0 0 1
vn 0 0 -1
vn 0 -1 0
vn 0 1 0

# texcoords
vt 0.841797 0.5
vt 0.974609 0.5
vt 0.978516 0.5
vt 0.986328 0.5

# verts
v -4.5 0 2.5
v -4.5 0 -2.5
v -4.5 2 2.5
v -4.5 2 -2.5
v -2.5 2 0.5
v -2.5 2 -0.5
v -2.5 3 0.5
v -2.5 3 -0.5
v -1.5 3 0.5
v -1.5 3 -0.5
v -1.5 4 0.5
v -1.5 4 -0.5
v -0.5 4 0.5
v -0.5 4 -0.5
v -0.5 5 0.5
v -0.5 5 -0.5
v 0.5 5 0.5
v 0.5 5 -0.5
v 0.5 6 0.5
v 0.5 6 -0.5
v 1.5 6 0.5
v 1.5 6 -0.5
v 1.5 7 0.5
v 1.5 7 -0.5
v 2.5 7 0.5
v 2.5 7 -0.5
v 2.5 8 0.5
v 2.5 8 -0.5
v 2.5 9 0.5
v 2.5 9 -0.5
v 0.5 3 0.5
v 0.5 3 -0.5
v 0.5 4 0.5
v 0.5 4 -0.5
v 1.5 2 0.5
v 1.5 2 -0.5
v 1.5 3 0.5
v 1.5 3 -0.5
v 1.5 4 0.5
v 1.5 4 -0.5
v 1.5 5 0.5
v 1.5 5 -0.5
v 2.5 5 0.5
v 2.5 5 -0.5
v 2.5 6 0.5
v 2.5 6 -0.5
v 3.5 0 2.5
v 3.5 0 -2.5
v 3.5 2 2.5
v 3.5 2 -2.5
v 3.5 6 0.5
v 3.5 6 -0.5
v 3.5 7 0.5
v 3.5 7 -0.5
v 4.5 7 0.5
v 4.5 7 -0.5
v 4.5 8 0.5
v 4.5 8 -0.5
v 4.5 9 0.5
v 4.5 9 -0.5
v -4.5 0 2.5
v -4.5 2 2.5
v 3.5 0 2.5
v 3.5 2 2.5
v -2.5 2 0.5
v -2.5 3 0.5
v -1.5 3 0.5
v -1.5 4 0.5
v -0.5 4 0.5
v -0.5 5 0.5
v 0.5 3 0.5
v 0.5 4 0.5
v 0.5 5 0.5
v 0.5 6 0.5
v 1.5 2 0.5
v 1.5 3 0.5
v 1.5 4 0.5
v 1.5 5 0.5
v 1.5 6 0.5
v 1.5 7 0.5
v 2.5 5 0.5
v 2.5 6 0.5
v 2.5 7 0.5
v 2.5 8 0.5
v 2.5 9 0.5
v 3.5 6 0.5
v 3.5 7 0.5
v 4.5 7 0.5
v 4.5 8 0.5
v 4.5 9 0.5
v -2.5 2 -0.5
v -2.5 3 -0.5
v -1.5 3 -0.5
v -1.5 4 -0.5
v -0.5 4 -0.5
v -0.5 5 -0.5
v 0.5 3 -0.5
v 0.5 4 -0.5
v 0.5 5 -0.5
v 0.5 6 -0.5
v 1.5 2 -0.5
v 1.5 3 -0.5
v 1.5 4 -0.5
v 1.5 5 -0.5
v 1.5 6 -0.5
v 1.5 7 -0.5
v 2.5 5 -0.5
v 2.5 6 -0.5
v 2.5 7 -0.5
v 2.5 8 -0.5
v 2.5 9 -0.5
v 3.5 6 -0.5
v 3.5 7 -0.5
v 4.5 7 -0.5
v 4.5 8 -0.5
v 4.5 9 -0.5
v -4.5 0 -2.5
v -4.5 2 -2.5
v 3.5 0 -2.5
v 3.5 2 -2.5
v -4.5 0 2.5
v 3.5 0 2.5
v -3.5 0 1.5
v 2.5 0 1.5
v -3.5 0 -1.5
v 2.5 0 -1.5
v -4.5 0 -2.5
v 3.5 0 -2.5
v 0.5 4 0.5
v 1.5 4 0.5
v 0.5 4 -0.5
v 1.5 4 -0.5
v 1.5 5 0.5
v 2.5 5 0.5
v 1.5 5 -0.5
v 2.5 5 -0.5
v 2.5 6 0.5
v 3.5 6 0.5
v 2.5 6 -0.5
v 3.5 6 -0.5
v 3.5 7 0.5
v 4.5 7 0.5
v 3.5 7 -0.5
v 4.5 7 -0.5
v -4.5 2 2.5
v 3.5 2 2.5
v -3.5 2 1.5
v 2.5 2 1.5
v -2.5 2 0.5
v 1.5 2 0.5
v -2.5 2 -0.5
v 1.5 2 -0.5
v -3.5 2 -1.5
v 2.5 2 -1.5
v -4.5 2 -2.5
v 3.5 2 -2.5
v -2.5 3 0.5
v -1.5 3 0.5
v 0.5 3 0.5
v 1.5 3 0.5
v -2.5 3 -0.5
v -1.5 3 -0.5
v 0.5 3 -0.5
v 1.5 3 -0.5
v -1.5 4 0.5
v -0.5 4 0.5
v -1.5 4 -0.5
v -0.5 4 -0.5
v -0.5 5 0.5
v 0.5 5 0.5
v -0.5 5 -0.5
v 0.5 5 -0.5
v 0.5 6 0.5
v 1.5 6 0.5
v 0.5 6 -0.5
v 1.5 6 -0.5
v 1.5 7 0.5
v 2.5 7 0.5
v 1.5 7 -0.5
v 2.5 7 -0.5
v 2.5 9 0.5
v 4.5 9 0.5
v 2.5 9 -0.5
v 4.5 9 -0.5

# faces
f 3/2/1 2/2/1 1/2/1
f 4/2/1 2/2/1 3/2/1
f 7/3/1 6/3/1 5/3/1
f 8/3/1 6/3/1 7/3/1
f 11/3/1 10/3/1 9/3/1
f 12/3/1 10/3/1 11/3/1
f 15/3/1 14/3/1 13/3/1
f 16/3/1 14/3/1 15/3/1
f 19/3/1 18/3/1 17/3/1
f 20/3/1 18/3/1 19/3/1
f 23/3/1 22/3/1 21/3/1
f 24/3/1 22/3/1 23/3/1
f 27/3/1 26/3/1 25/3/1
f 28/3/1 26/3/1 27/3/1
f 29/1/1 28/1/1 27/1/1
f 30/1/1 28/1/1 29/1/1
f 31/3/2 32/3/2 33/3/2
f 33/3/2 32/3/2 34/3/2
f 35/3/2 36/3/2 37/3/2
f 37/3/2 36/3/2 38/3/2
f 39/3/2 40/3/2 41/3/2
f 41/3/2 40/3/2 42/3/2
f 43/3/2 44/3/2 45/3/2
f 45/3/2 44/3/2 46/3/2
f 47/2/2 48/2/2 49/2/2
f 49/2/2 48/2/2 50/2/2
f 51/3/2 52/3/2 53/3/2
f 53/3/2 52/3/2 54/3/2
f 55/3/2 56/3/2 57/3/2
f 57/3/2 56/3/2 58/3/2
f 57/1/2 58/1/2 59/1/2
f 59/1/2 58/1/2 60/1/2
f 63/2/3 62/2/3 61/2/3
f 64/2/3 62/2/3 63/2/3
f 67/3/3 66/3/3 65/3/3
f 69/3/3 68/3/3 67/3/3
f 71/3/3 67/3/3 65/3/3
f 71/3/3 70/3/3 69/3/3
f 71/3/3 69/3/3 67/3/3
f 72/3/3 70/3/3 71/3/3
f 73/3/3 70/3/3 72/3/3
f 75/3/3 71/3/3 65/3/3
f 76/3/3 71/3/3 75/3/3
f 77/3/3 74/3/3 73/3/3
f 77/3/3 73/3/3 72/3/3
f 78/3/3 74/3/3 77/3/3
f 79/3/3 74/3/3 78/3/3
f 81/3/3 80/3/3 79/3/3
f 81/3/3 79/3/3 78/3/3
f 82/3/3 80/3/3 81/3/3
f 83/3/3 80/3/3 82/3/3
f 86/3/3 83/3/3 82/3/3
f 86/3/3 84/3/3 83/3/3
f 87/3/3 84/3/3 86/3/3
f 88/3/3 84/3/3 87/3/3
f 89/1/3 85/1/3 84/1/3
f 89/3/3 84/3/3 88/3/3
f 90/1/3 85/1/3 89/1/3
f 91/3/4 92/3/4 93/3/4
f 93/3/4 94/3/4 95/3/4
f 91/3/4 93/3/4 97/3/4
f 95/3/4 96/3/4 97/3/4
f 93/3/4 95/3/4 97/3/4
f 97/3/4 96/3/4 98/3/4
f 98/3/4 96/3/4 99/3/4
f 91/3/4 97/3/4 101/3/4
f 101/3/4 97/3/4 102/3/4
f 99/3/4 100/3/4 103/3/4
f 98/3/4 99/3/4 103/3/4
f 103/3/4 100/3/4 104/3/4
f 104/3/4 100/3/4 105/3/4
f 105/3/4 106/3/4 107/3/4
f 104/3/4 105/3/4 107/3/4
f 107/3/4 106/3/4 108/3/4
f 108/3/4 106/3/4 109/3/4
f 108/3/4 109/3/4 112/3/4
f 109/3/4 110/3/4 112/3/4
f 112/3/4 110/3/4 113/3/4
f 113/3/4 110/3/4 114/3/4
f 110/1/4 111/1/4 115/1/4
f 114/3/4 110/3/4 115/3/4
f 115/1/4 111/1/4 116/1/4
f 117/2/4 118/2/4 119/2/4
f 119/2/4 118/2/4 120/2/4
f 123/2/5 122/2/5 121/2/5
f 124/2/5 122/2/5 123/2/5
f 125/2/5 123/2/5 121/2/5
f 125/4/5 124/4/5 123/4/5
f 126/2/5 122/2/5 124/2/5
f 126/4/5 124/4/5 125/4/5
f 127/2/5 125/2/5 121/2/5
f 127/2/5 126/2/5 125/2/5
f 128/2/5 122/2/5 126/2/5
f 128/2/5 126/2/5 127/2/5
f 131/3/5 130/3/5 129/3/5
f 132/3/5 130/3/5 131/3/5
f 135/3/5 134/3/5 133/3/5
f 136/3/5 134/3/5 135/3/5
f 139/3/5 138/3/5 137/3/5
f 140/3/5 138/3/5 139/3/5
f 143/3/5 142/3/5 141/3/5
f 144/3/5 142/3/5 143/3/5
f 145/2/6 146/2/6 147/2/6
f 147/2/6 146/2/6 148/2/6
f 147/4/6 148/4/6 149/4/6
f 149/4/6 148/4/6 150/4/6
f 147/4/6 149/4/6 151/4/6
f 150/4/6 148/4/6 152/4/6
f 145/2/6 147/2/6 153/2/6
f 151/4/6 152/4/6 153/4/6
f 147/4/6 151/4/6 153/4/6
f 152/4/6 148/4/6 154/4/6
f 153/4/6 152/4/6 154/4/6
f 148/2/6 146/2/6 154/2/6
f 145/2/6 153/2/6 155/2/6
f 153/2/6 154/2/6 155/2/6
f 154/2/6 146/2/6 156/2/6
f 155/2/6 154/2/6 156/2/6
f 157/3/6 158/3/6 161/3/6
f 161/3/6 158/3/6 162/3/6
f 159/3/6 160/3/6 163/3/6
f 163/3/6 160/3/6 164/3/6
f 165/3/6 166/3/6 167/3/6
f 167/3/6 166/3/6 168/3/6
f 169/3/6 170/3/6 171/3/6
f 171/3/6 170/3/6 172/3/6
f 173/3/6 174/3/6 175/3/6
f 175/3/6 174/3/6 176/3/6
f 177/3/6 178/3/6 179/3/6
f 179/3/6 178/3/6 180/3/6
f 181/1/6 182/1/6 183/1/6
f 183/1/6 182/1/6 184/1/6
