# Blender v2.79 (sub 0) OBJ File: ''
# www.blender.org
mtllib flower_1.mtl
o OPT_flower_1.001
v -4.000007 -3.500006 -3.000006
v -3.000005 -4.500007 -2.000004
v -3.000005 -3.500006 -2.000004
v -5.000009 -0.500000 -3.000005
v -4.000007 -0.500000 -4.000007
v -4.000007 -0.500000 -3.000005
v -3.000005 -1.500002 -2.000004
v -3.000005 -0.500001 -2.000004
v -2.000004 -0.500001 -0.000000
v -1.000002 -0.500001 -0.000000
v 0.000000 -0.500001 -1.000002
v 0.000000 -0.500001 -0.000000
v -3.000005 -4.500008 1.999992
v -3.000005 -3.500006 1.999992
v -4.000007 -3.500007 2.999994
v -3.000005 -1.500003 1.999993
v -3.000005 -0.500001 1.999993
v -5.000009 -0.500001 2.999995
v -4.000007 -0.500001 2.999995
v -4.000007 -0.500002 3.999997
v -2.000004 -0.500001 0.999991
v -1.736111 -0.500001 1.999993
v -1.000002 -0.500001 0.999991
v -5.000009 0.499991 -3.000005
v -4.000007 0.499991 -4.000007
v -4.000007 0.499991 -3.000005
v -3.000005 0.499991 -2.000004
v -3.000005 0.499990 0.000000
v -3.000005 1.499992 0.000000
v -3.000005 2.499994 0.000000
v -3.000005 3.499996 0.000001
v -2.000004 0.499990 0.000000
v -2.000004 1.499992 0.000000
v -2.000004 2.499994 -1.000002
v -2.000004 2.499994 0.000000
v -1.000002 0.499991 -1.000002
v -1.000002 0.499990 0.000000
v 0.000000 0.499991 -1.000002
v 0.000000 0.499990 0.000000
v -1.000002 1.499992 -1.000002
v -1.000002 1.499992 0.000000
v -1.000002 2.499994 -1.000002
v -1.000002 2.499994 0.000000
v 0.000000 1.499992 -1.000002
v 0.000000 1.499992 0.000000
v 0.000000 2.499994 0.000000
v -2.000004 3.499996 -1.000001
v -2.000004 3.499996 0.000001
v -2.000004 4.499998 0.000001
v -1.000002 3.499996 -1.000001
v -1.000002 3.499996 0.000001
v 0.000000 3.499996 -1.000001
v 0.000000 3.499996 0.000001
v -1.000002 4.499998 0.000001
v -5.000009 0.499990 0.347222
v -3.000005 0.499990 0.999991
v -3.000005 0.499990 1.999993
v -3.000005 1.499992 0.999991
v -3.000005 2.499994 0.999991
v -5.000009 0.499990 2.999995
v -4.000007 0.499990 2.999995
v -4.000007 0.499990 3.999997
v -3.000005 3.499995 0.999992
v -2.000004 0.499990 0.999991
v -2.000004 1.499992 0.999991
v -2.000004 2.499994 0.999991
v -2.000004 2.499994 1.999993
v 0.000000 0.499990 0.999991
v -1.000002 2.499994 0.999991
v 0.000000 1.499992 0.999991
v 0.000000 2.499994 0.999991
v -1.000002 2.499994 1.999993
v -2.000004 3.499995 0.999992
v -2.000004 3.499995 1.999993
v -2.000004 4.499998 0.999992
v -1.000002 3.499995 0.999992
v 0.000000 3.499995 0.999992
v -1.000002 3.499995 1.999993
v -1.000002 4.499998 0.999992
v 0.999991 -0.500001 -1.000002
v 0.999991 -0.500001 -0.000000
v 1.999993 -0.500001 -0.000000
v 3.999997 -3.500006 -3.000006
v 2.999995 -4.500007 -2.000004
v 2.999995 -3.500006 -2.000004
v 3.999997 -3.500006 -1.736112
v 2.999995 -3.500006 -1.041667
v 3.999997 -3.500006 -1.041667
v 3.999997 -0.500000 -4.000007
v 3.999997 -0.500000 -3.000005
v 4.999999 -0.500000 -3.000005
v 2.999995 -1.500002 -2.000004
v 2.999995 -0.500001 -2.000004
v 0.999991 -0.500001 0.999991
v 1.999993 -0.500001 0.347222
v 1.999993 -0.500001 0.999991
v 2.999995 -4.500008 1.999992
v 2.999995 -3.500006 1.999992
v 3.999997 -3.500007 2.999994
v 2.999995 -1.500003 1.999993
v 2.999995 -0.500001 0.347222
v 2.999995 -0.500001 1.999993
v 3.999997 -0.500001 2.999995
v 3.999997 -0.500002 3.999997
v 4.999999 -0.500001 2.999995
v 2.430556 0.499991 -4.000007
v 0.999991 0.499990 0.000000
v 0.999991 2.499994 -2.000003
v 0.999991 1.499992 -1.000002
v 0.999991 1.499992 0.000000
v 0.999991 2.499994 -1.000002
v 0.999991 2.499994 0.000000
v 1.999993 0.499990 0.000000
v 1.999993 2.499994 -2.000003
v 1.999993 1.499992 -1.000002
v 1.999993 1.499992 0.000000
v 1.999993 2.499994 -1.000002
v 1.999993 2.499994 0.000000
v 0.999991 3.499996 -2.000003
v 0.999991 3.499996 -1.000001
v 0.999991 3.499996 0.000001
v 0.999991 4.499998 -1.000001
v 0.999991 4.499998 0.000001
v 1.999993 3.499996 -2.000003
v 1.999993 3.499996 -1.000001
v 1.999993 3.499996 0.000001
v 1.999993 4.499998 -1.000001
v 1.999993 4.499998 0.000001
v 3.125000 0.499991 -3.125000
v 3.999997 0.499991 -4.000007
v 3.999997 0.499991 -3.000005
v 4.999999 0.499991 -3.000005
v 2.999995 0.499991 -2.000004
v 0.999991 0.499990 0.999991
v 0.999991 1.499992 0.999991
v 0.999991 2.499994 0.999991
v 1.999993 0.499990 0.999991
v 1.999993 2.499994 0.999991
v 0.999991 3.499995 0.999992
v 1.999993 3.499995 0.999992
v 2.999995 0.499990 1.999993
v 3.999997 0.499990 2.999995
v 3.999997 0.499990 3.999997
v 4.999999 0.499990 2.999995
vt 0.801725 0.908333
vt 0.801725 0.875000
vt 0.836208 0.875000
vt 0.836208 0.908333
vt 0.308044 0.708333
vt 0.308044 0.575000
vt 0.377009 0.575000
vt 0.377009 0.708333
vt 0.008621 0.792497
vt 0.008621 0.759164
vt 0.043103 0.759164
vt 0.043103 0.725831
vt 0.077586 0.725831
vt 0.077586 0.759164
vt 0.077586 0.792497
vt 0.043104 0.792497
vt 0.732759 0.958333
vt 0.698276 0.958333
vt 0.698276 0.925000
vt 0.732759 0.925000
vt 0.836207 0.291667
vt 0.870690 0.291667
vt 0.870690 0.491667
vt 0.836207 0.491667
vt 0.922414 0.725000
vt 0.922414 0.825000
vt 0.887932 0.825000
vt 0.887932 0.791667
vt 0.887932 0.758333
vt 0.887932 0.725000
vt 0.273561 0.975000
vt 0.273561 0.941667
vt 0.308043 0.941667
vt 0.308043 0.975000
vt 0.663793 0.008333
vt 0.663793 0.208333
vt 0.525862 0.208333
vt 0.525862 0.008333
vt 0.698276 0.508333
vt 0.767242 0.508333
vt 0.767242 0.708333
vt 0.698276 0.708333
vt 0.732759 0.725000
vt 0.732759 0.791667
vt 0.732759 0.825000
vt 0.732759 0.858333
vt 0.698276 0.858333
vt 0.698276 0.725000
vt 0.991379 0.058333
vt 0.991379 0.091667
vt 0.956897 0.091667
vt 0.956897 0.058333
vt 0.991379 0.208334
vt 0.991379 0.241667
vt 0.956897 0.241667
vt 0.956897 0.208334
vt 0.359768 0.875000
vt 0.325285 0.875000
vt 0.325285 0.841666
vt 0.359768 0.841666
vt 0.525862 0.291667
vt 0.525862 0.558333
vt 0.422414 0.558333
vt 0.422414 0.291667
vt 0.325285 0.941667
vt 0.359767 0.941667
vt 0.359767 0.975000
vt 0.325285 0.975000
vt 0.836207 0.758333
vt 0.836207 0.725000
vt 0.870690 0.725000
vt 0.870690 0.758333
vt 0.784483 0.008333
vt 0.784483 0.208333
vt 0.681034 0.208333
vt 0.681034 0.008333
vt 0.043103 0.925831
vt 0.008621 0.925831
vt 0.008621 0.892497
vt 0.043104 0.892497
vt 0.629311 0.875000
vt 0.629311 0.908333
vt 0.594828 0.908333
vt 0.594828 0.875000
vt 0.991379 0.141667
vt 0.956897 0.141667
vt 0.956897 0.108333
vt 0.991379 0.108333
vt 0.698276 0.291667
vt 0.767242 0.291667
vt 0.767242 0.491667
vt 0.698276 0.491667
vt 0.301724 0.291667
vt 0.405173 0.291667
vt 0.405173 0.558333
vt 0.301724 0.558333
vt 0.974138 0.425000
vt 0.939655 0.425000
vt 0.939655 0.391667
vt 0.974138 0.391667
vt 0.250000 0.308333
vt 0.250000 0.341667
vt 0.134578 0.341667
vt 0.112069 0.275000
vt 0.146552 0.275000
vt 0.215517 0.275000
vt 0.215517 0.075000
vt 0.254310 0.070833
vt 0.284483 0.093981
vt 0.284483 0.308333
vt 0.681035 0.958333
vt 0.646552 0.958333
vt 0.646552 0.925000
vt 0.681035 0.925000
vt 0.715518 0.258333
vt 0.681035 0.258333
vt 0.681035 0.225000
vt 0.715517 0.225000
vt 0.612069 0.258333
vt 0.577586 0.258333
vt 0.577586 0.225000
vt 0.612069 0.225000
vt 0.629310 0.258333
vt 0.629310 0.225000
vt 0.663793 0.225000
vt 0.663793 0.258333
vt 0.784483 0.908333
vt 0.750001 0.908333
vt 0.750001 0.875000
vt 0.784483 0.875000
vt 0.342526 0.825000
vt 0.342526 0.791667
vt 0.308044 0.791667
vt 0.308044 0.758333
vt 0.342526 0.758333
vt 0.342526 0.725000
vt 0.377009 0.725000
vt 0.377009 0.758333
vt 0.377009 0.791667
vt 0.377009 0.825000
vt 0.629310 0.925000
vt 0.629310 0.958333
vt 0.594828 0.958333
vt 0.594828 0.925000
vt 0.008621 0.842497
vt 0.008621 0.809164
vt 0.043104 0.809164
vt 0.043104 0.875831
vt 0.008621 0.875831
vt 0.853448 0.258333
vt 0.853448 0.225000
vt 0.887931 0.225000
vt 0.887931 0.258333
vt 0.577587 0.908333
vt 0.543104 0.908333
vt 0.543104 0.875000
vt 0.577587 0.875000
vt 0.939655 0.041667
vt 0.905173 0.041667
vt 0.905173 0.008333
vt 0.939655 0.008333
vt 0.525862 0.258333
vt 0.525862 0.225000
vt 0.560345 0.225000
vt 0.560345 0.258333
vt 0.612069 0.575000
vt 0.612069 0.608333
vt 0.612069 0.641667
vt 0.577587 0.641667
vt 0.577587 0.675000
vt 0.543104 0.666204
vt 0.543104 0.508333
vt 0.600096 0.508333
vt 0.600096 0.541667
vt 0.577587 0.541667
vt 0.577587 0.575000
vt 0.939655 0.191667
vt 0.905173 0.191667
vt 0.905173 0.158334
vt 0.939655 0.158334
vt 0.870690 0.708333
vt 0.836207 0.708333
vt 0.836207 0.508333
vt 0.870690 0.508333
vt 0.922414 0.491667
vt 0.887932 0.491667
vt 0.887932 0.291667
vt 0.922414 0.291667
vt 0.801724 0.008333
vt 0.836207 0.008333
vt 0.836207 0.275000
vt 0.801724 0.275000
vt 0.939655 0.291667
vt 0.974138 0.291667
vt 0.974138 0.325000
vt 0.939655 0.325000
vt 0.732759 0.225000
vt 0.767242 0.225000
vt 0.767242 0.258333
vt 0.732759 0.258333
vt 0.221836 0.891667
vt 0.256319 0.891667
vt 0.256319 0.925000
vt 0.221837 0.925000
vt 0.974138 0.341667
vt 0.974138 0.375000
vt 0.939655 0.375000
vt 0.939655 0.341667
vt 0.308043 0.925000
vt 0.273561 0.925000
vt 0.273561 0.891667
vt 0.308043 0.891667
vt 0.043103 0.975831
vt 0.008621 0.975831
vt 0.008621 0.942498
vt 0.043103 0.942498
vt 0.577587 0.858333
vt 0.543104 0.858333
vt 0.543104 0.725000
vt 0.577587 0.725000
vt 0.577587 0.756945
vt 0.336207 0.041667
vt 0.345307 0.008333
vt 0.369253 0.008333
vt 0.369253 0.041667
vt 0.939655 0.741667
vt 0.974138 0.741667
vt 0.974138 0.775001
vt 0.939655 0.775001
vt 0.818966 0.775000
vt 0.784483 0.775000
vt 0.784483 0.575000
vt 0.818966 0.575000
vt 0.887932 0.508333
vt 0.922414 0.508333
vt 0.922414 0.708333
vt 0.887932 0.708333
vt 0.991379 0.158334
vt 0.991379 0.191667
vt 0.956897 0.191667
vt 0.956897 0.158334
vt 0.594828 0.858333
vt 0.594828 0.725000
vt 0.629311 0.725000
vt 0.629311 0.858333
vt 0.991379 0.041667
vt 0.956897 0.041667
vt 0.956897 0.008333
vt 0.991379 0.008333
vt 0.905173 0.141667
vt 0.905173 0.108333
vt 0.939655 0.108333
vt 0.939655 0.141667
vt 0.784483 0.558334
vt 0.784483 0.291667
vt 0.818966 0.291667
vt 0.818966 0.558333
vt 0.267241 0.558334
vt 0.163793 0.558334
vt 0.163793 0.358334
vt 0.267241 0.358334
vt 0.267241 0.493056
vt 0.267241 0.516204
vt 0.008621 0.558334
vt 0.008621 0.358334
vt 0.146552 0.358334
vt 0.146552 0.558334
vt 0.508621 0.008333
vt 0.508621 0.275000
vt 0.301724 0.275000
vt 0.301724 0.008333
vt 0.336207 0.241667
vt 0.474138 0.241667
vt 0.474138 0.041667
vt 0.974138 0.841667
vt 0.974138 0.875000
vt 0.939656 0.875000
vt 0.939656 0.841667
vt 0.922414 0.875000
vt 0.887932 0.875000
vt 0.887932 0.841667
vt 0.922414 0.841667
vt 0.394251 0.685948
vt 0.428733 0.685948
vt 0.428733 0.774374
vt 0.428733 0.885948
vt 0.394251 0.885948
vt 0.922414 0.925000
vt 0.887932 0.925000
vt 0.887932 0.891667
vt 0.922414 0.891667
vt 0.221837 0.875000
vt 0.221836 0.841666
vt 0.256319 0.841666
vt 0.256319 0.875000
vt 0.152872 0.891667
vt 0.118389 0.891667
vt 0.118389 0.858334
vt 0.152872 0.858334
vt 0.308044 0.875000
vt 0.273561 0.875000
vt 0.273561 0.841666
vt 0.308044 0.841666
vt 0.418634 0.622141
vt 0.394251 0.598570
vt 0.418634 0.575000
vt 0.443017 0.598570
vt 0.467400 0.575000
vt 0.491783 0.598570
vt 0.467400 0.622141
vt 0.491783 0.645711
vt 0.467400 0.669281
vt 0.443017 0.645711
vt 0.418634 0.669281
vt 0.394251 0.645711
vt 0.698276 0.908333
vt 0.698276 0.875000
vt 0.732759 0.875000
vt 0.732759 0.908333
vt 0.094828 0.892497
vt 0.060345 0.892497
vt 0.060345 0.859164
vt 0.094828 0.859164
vt 0.060345 0.809164
vt 0.094828 0.809164
vt 0.094828 0.842497
vt 0.060345 0.842497
vt 0.043103 0.008333
vt 0.250000 0.008333
vt 0.250000 0.041667
vt 0.284483 0.041667
vt 0.077586 0.075000
vt 0.077586 0.275000
vt 0.043104 0.341667
vt 0.043104 0.308333
vt 0.008621 0.308334
vt 0.008621 0.041667
vt 0.043103 0.041667
vt 0.070305 0.634628
vt 0.101147 0.694257
vt 0.070305 0.709164
vt 0.054884 0.679350
vt 0.024042 0.694257
vt 0.008621 0.664443
vt 0.039463 0.649535
vt 0.008621 0.589907
vt 0.039463 0.575000
vt 0.054884 0.604814
vt 0.085726 0.589907
vt 0.101147 0.619721
vt 0.290802 0.825000
vt 0.256319 0.825000
vt 0.256319 0.791666
vt 0.221836 0.791666
vt 0.221837 0.758333
vt 0.256319 0.758333
vt 0.256319 0.725000
vt 0.290802 0.725000
vt 0.221836 0.941667
vt 0.256319 0.941667
vt 0.256319 0.975000
vt 0.221837 0.975000
vt 0.646552 0.908333
vt 0.646552 0.875000
vt 0.681035 0.875000
vt 0.681035 0.908333
vt 0.922414 0.975000
vt 0.887932 0.975000
vt 0.887932 0.941667
vt 0.922414 0.941667
vt 0.974138 0.941667
vt 0.974138 0.975000
vt 0.939656 0.975000
vt 0.939656 0.953241
vt 0.939656 0.941667
vt 0.428733 0.985948
vt 0.394251 0.985948
vt 0.394251 0.952615
vt 0.428733 0.952615
vt 0.939655 0.058333
vt 0.939655 0.091667
vt 0.905173 0.091667
vt 0.905173 0.058333
vt 0.939655 0.641667
vt 0.974138 0.641667
vt 0.974138 0.675000
vt 0.939655 0.675000
vt 0.784483 0.958333
vt 0.750001 0.958333
vt 0.750001 0.925000
vt 0.784483 0.925000
vt 0.204595 0.789352
vt 0.204595 0.841667
vt 0.170113 0.841667
vt 0.170113 0.575000
vt 0.204595 0.575000
vt 0.170113 0.941667
vt 0.170113 0.908334
vt 0.204595 0.908334
vt 0.204595 0.941667
vt 0.543104 0.958333
vt 0.543104 0.925000
vt 0.577586 0.925000
vt 0.577586 0.958333
vt 0.974138 0.575000
vt 0.939655 0.575000
vt 0.939655 0.541667
vt 0.974138 0.541667
vt 0.974138 0.691667
vt 0.974138 0.725001
vt 0.939655 0.725001
vt 0.939655 0.691667
vt 0.818966 0.858333
vt 0.784483 0.858333
vt 0.784483 0.825000
vt 0.818966 0.825000
vt 0.818966 0.791667
vt 0.853448 0.791667
vt 0.853448 0.858333
vt 0.939655 0.441667
vt 0.974138 0.441667
vt 0.974138 0.475000
vt 0.939655 0.475000
vt 0.221837 0.676389
vt 0.221836 0.575000
vt 0.290802 0.575000
vt 0.290802 0.708333
vt 0.221837 0.708333
vt 0.394251 0.902615
vt 0.428733 0.902614
vt 0.428733 0.935948
vt 0.394251 0.935948
vt 0.974138 0.925000
vt 0.939656 0.925000
vt 0.939656 0.891667
vt 0.974138 0.891667
vt 0.445974 0.685948
vt 0.480457 0.685948
vt 0.480457 0.843818
vt 0.480457 0.885948
vt 0.445974 0.885948
vt 0.118389 0.941667
vt 0.118389 0.908334
vt 0.152871 0.908334
vt 0.152871 0.941667
vt 0.152871 0.575000
vt 0.152871 0.841667
vt 0.118389 0.841667
vt 0.118389 0.575000
vt 0.939655 0.525000
vt 0.939655 0.491667
vt 0.974138 0.491667
vt 0.974138 0.525000
vt 0.939655 0.591667
vt 0.974138 0.591667
vt 0.974138 0.625000
vt 0.939655 0.625000
vt 0.646552 0.780092
vt 0.646552 0.725000
vt 0.681035 0.725000
vt 0.681035 0.858333
vt 0.646552 0.858333
vt 0.359768 0.925000
vt 0.325285 0.925000
vt 0.325285 0.891667
vt 0.359768 0.891667
vt 0.480457 0.902614
vt 0.480457 0.935948
vt 0.445974 0.935948
vt 0.445974 0.902614
vt 0.094827 0.942498
vt 0.060345 0.942498
vt 0.060345 0.909164
vt 0.094827 0.909164
vt 0.543104 0.491667
vt 0.543104 0.291667
vt 0.681035 0.291667
vt 0.681035 0.491667
vt 0.576150 0.491667
vt 0.836207 0.925000
vt 0.836207 0.958333
vt 0.801725 0.958333
vt 0.801725 0.925000
vt 0.887931 0.008333
vt 0.887931 0.208333
vt 0.853448 0.208333
vt 0.853448 0.008333
vt 0.939655 0.208334
vt 0.939655 0.241667
vt 0.905173 0.241667
vt 0.905173 0.208334
vt 0.543104 0.708333
vt 0.612069 0.675000
vt 0.646552 0.608333
vt 0.646552 0.575000
vt 0.612069 0.541667
vt 0.681035 0.508333
vt 0.681035 0.708333
vt 0.152871 0.991667
vt 0.118389 0.991667
vt 0.118389 0.958334
vt 0.152871 0.958334
vt 0.445974 0.952615
vt 0.480457 0.952615
vt 0.480457 0.985948
vt 0.445974 0.985948
vn -1.0000 -0.0000 0.0000
vn 1.0000 0.0000 0.0000
vn 0.0000 -0.0000 1.0000
vn 0.0000 -1.0000 -0.0000
vn 0.0000 1.0000 0.0000
vn 0.0000 0.0000 -1.0000
usemtl palette
s off
f 37/1/1 41/2/1 40/3/1 36/4/1
f 14/5/2 3/6/2 7/7/2 16/8/2
f 116/9/3 118/10/3 112/11/3 121/12/3 53/13/3 46/14/3 45/15/3 110/16/3
f 48/17/1 73/18/1 75/19/1 49/20/1
f 19/21/4 18/22/4 4/23/4 6/24/4
f 69/25/2 23/26/2 10/27/2 37/28/2 41/29/2 43/30/2
f 68/31/1 70/32/1 45/33/1 39/34/1
f 97/35/4 13/36/4 2/37/4 84/38/4
f 7/39/3 3/40/3 85/41/3 92/42/3
f 27/43/2 28/44/2 56/45/2 57/46/2 17/47/2 8/48/2
f 126/49/5 121/50/5 139/51/5 140/52/5
f 58/53/5 65/54/5 33/55/5 29/56/5
f 108/57/1 111/58/1 120/59/1 119/60/1
f 6/61/6 90/62/6 83/63/6 1/64/6
f 79/65/5 54/66/5 49/67/5 75/68/5
f 72/69/2 69/70/2 76/71/2 78/72/2
f 19/73/1 6/74/1 1/75/1 15/76/1
f 45/77/3 41/78/3 37/79/3 39/80/3
f 72/81/3 78/82/3 74/83/3 67/84/3
f 30/85/1 59/86/1 63/87/1 31/88/1
f 100/89/6 98/90/6 14/91/6 16/92/6
f 19/93/3 15/94/3 99/95/3 103/96/3
f 54/97/2 79/98/2 76/99/2 51/100/2
f 26/101/5 24/102/5 55/103/5 56/104/5 28/105/5 27/106/5 133/107/5 129/108/5 106/109/5 25/110/5
f 28/111/1 56/112/1 58/113/1 29/114/1
f 36/115/4 38/116/4 39/117/4 37/118/4
f 66/119/1 67/120/1 74/121/1 73/122/1
f 41/123/5 45/124/5 44/125/5 40/126/5
f 34/127/4 42/128/4 43/129/4 35/130/4
f 9/131/6 32/132/6 28/133/6 29/134/6 33/135/6 35/136/6 43/137/6 41/138/6 37/139/6 10/140/6
f 64/141/4 56/142/4 28/143/4 32/144/4
f 46/145/1 53/146/1 52/147/1 44/148/1 45/149/1
f 48/150/5 51/151/5 50/152/5 47/153/5
f 48/154/6 49/155/6 54/156/6 51/157/6
f 34/158/1 35/159/1 48/160/1 47/161/1
f 51/162/2 43/163/2 42/164/2 50/165/2
f 81/166/5 12/167/5 10/168/5 23/169/5 21/170/5 22/171/5 102/172/5 101/173/5 95/174/5 96/175/5 94/176/5
f 66/177/4 69/178/4 72/179/4 67/180/4
f 85/181/6 84/182/6 2/183/6 3/184/6
f 27/185/3 8/186/3 93/187/3 133/188/3
f 89/189/4 90/190/4 6/191/4 5/192/4
f 53/193/5 121/194/5 120/195/5 52/196/5
f 74/197/5 78/198/5 76/199/5 73/200/5
f 76/201/3 79/202/3 75/203/3 73/204/3
f 48/205/5 31/206/5 63/207/5 73/208/5
f 63/209/3 59/210/3 66/211/3 73/212/3
f 81/213/1 94/214/1 134/215/1 107/216/1
f 98/217/2 97/218/2 84/219/2 85/220/2 87/221/2
f 85/222/4 86/223/4 88/224/4 87/225/4
f 19/226/3 61/227/3 60/228/3 18/229/3
f 90/230/4 91/231/4 105/232/4 103/233/4
f 144/234/2 105/235/2 91/236/2 132/237/2
f 53/238/5 51/239/5 76/240/5 77/241/5
f 2/242/1 13/243/1 14/244/1 3/245/1
f 33/246/1 65/247/1 66/248/1 35/249/1
f 34/250/6 47/251/6 50/252/6 42/253/6
f 19/254/4 103/255/4 104/256/4 20/257/4
f 83/258/2 90/259/2 103/260/2 99/261/2 88/262/2 86/263/2
f 7/264/4 92/265/4 100/266/4 16/267/4
f 99/268/4 15/269/4 1/270/4 83/271/4 86/223/4 85/222/4 3/272/4 14/273/4 98/274/4 87/225/4 88/224/4
f 113/275/5 107/276/5 134/277/5 137/278/5
f 109/279/4 115/280/4 116/281/4 110/282/4
f 18/283/1 60/284/1 55/285/1 24/286/1 4/287/1
f 108/288/4 114/289/4 117/290/4 111/291/4
f 108/292/6 119/293/6 124/294/6 114/295/6
f 123/296/5 128/297/5 127/298/5 122/299/5
f 120/300/1 121/301/1 123/302/1 122/303/1
f 118/304/2 116/305/2 115/306/2 117/307/2 114/308/2 124/309/2 125/310/2 127/311/2 128/312/2 126/313/2 140/314/2 138/315/2
f 120/316/5 125/317/5 124/318/5 119/319/5
f 120/320/6 122/321/6 127/322/6 125/323/6
f 126/324/3 128/325/3 123/326/3 121/327/3
f 144/328/5 132/329/5 131/330/5 130/331/5 106/109/5 129/108/5 133/107/5 141/332/5 57/333/5 56/104/5 55/103/5 60/334/5 61/335/5 62/336/5 143/337/5 142/338/5
f 44/339/6 52/340/6 120/341/6 111/342/6 117/343/6 115/344/6 109/345/6 80/346/6 11/347/6 38/348/6 36/349/6 40/350/6
f 69/351/3 66/352/3 65/353/3 58/354/3 56/355/3 64/356/3 21/357/3 23/358/3
f 68/359/3 134/360/3 135/361/3 70/362/3
f 43/363/6 51/364/6 53/365/6 46/366/6
f 9/367/1 21/368/1 64/369/1 32/370/1
f 113/371/2 137/372/2 96/373/2 95/374/2 82/375/2
f 39/376/3 12/377/3 81/378/3 107/379/3
f 138/380/3 140/381/3 139/382/3 136/383/3
f 26/384/6 6/385/6 4/386/6 24/387/6
f 5/388/1 6/389/1 26/390/1 25/391/1
f 106/392/6 130/393/6 89/394/6 5/395/6 25/396/6
f 11/397/1 12/398/1 39/399/1 38/400/1
f 43/401/4 46/402/4 71/403/4 69/404/4
f 142/405/3 103/406/3 105/407/3 144/408/3
f 130/409/2 131/410/2 90/411/2 89/412/2
f 110/413/2 135/414/2 134/415/2 107/416/2 81/417/2 80/418/2 109/419/2
f 81/420/6 107/421/6 113/422/6 82/423/6
f 87/424/1 98/425/1 100/426/1 92/427/1 85/428/1
f 71/429/2 46/430/2 53/431/2 77/432/2
f 90/433/6 131/434/6 132/435/6 91/436/6
f 141/437/6 102/438/6 22/439/6 17/440/6 57/441/6
f 19/442/1 20/443/1 62/444/1 61/445/1
f 143/446/3 62/447/3 20/448/3 104/449/3
f 112/450/4 118/451/4 138/452/4 136/453/4
f 96/454/3 137/455/3 134/456/3 94/457/3
f 101/458/1 102/459/1 141/460/1 133/461/1 93/462/1
f 30/463/6 31/464/6 48/465/6 35/466/6
f 142/467/2 143/468/2 104/469/2 103/470/2
f 112/471/1 136/472/1 139/473/1 121/474/1
f 85/475/5 3/476/5 14/477/5 98/478/5 87/479/5
f 66/480/4 59/481/4 30/482/4 35/483/4
f 98/484/3 14/485/3 13/486/3 97/487/3
f 71/488/3 77/489/3 76/490/3 69/491/3
f 17/492/5 22/171/5 21/170/5 9/493/5 10/168/5 12/167/5 11/494/5 80/495/5 81/166/5 82/496/5 95/174/5 101/173/5 93/497/5 8/498/5
f 39/499/4 107/500/4 134/501/4 68/502/4
f 70/503/5 135/504/5 110/505/5 45/506/5
