# Blender v2.79 (sub 0) OBJ File: ''
# www.blender.org
mtllib flower_2.mtl
o OPT_flower_2.001
v -3.500011 -4.500004 -3.500012
v -4.500005 -4.500004 -2.500007
v -3.500011 -4.500004 -2.500007
v -3.500011 -3.500011 -2.500007
v -4.500005 -0.500008 -3.500011
v -3.500011 -0.500007 -4.500005
v -3.500011 -0.500008 -3.500011
v -5.500010 -1.500001 -2.500007
v -4.500005 -1.500001 -2.500007
v -4.500005 -0.500008 -2.500007
v -3.500011 -1.500001 -2.500007
v -3.500011 -0.500008 -2.500007
v -3.500011 -0.500008 -1.145834
v -2.500007 -4.500004 -4.500006
v -2.500007 -4.500004 -3.500012
v -2.500007 -3.500011 -3.500012
v -2.500007 -3.500011 -2.500007
v -2.500007 -0.500007 -5.500010
v -2.500007 -1.500001 -3.500012
v -2.500007 -0.500007 -4.500005
v -2.500007 -0.500008 -3.500011
v -2.500007 -1.500002 -2.500007
v -2.500007 -0.500008 -2.500007
v -2.500007 -0.500008 -1.500002
v -2.500007 -0.500009 -0.500008
v -0.500008 -0.500008 -2.500007
v -1.500001 -0.500008 -1.500002
v -1.500001 -0.500009 -0.500008
v -0.500008 -0.500008 -1.500002
v -0.500008 -0.500009 -0.500008
v -4.500005 -4.500005 2.499995
v -3.500011 -4.500005 2.499995
v -3.500011 -3.500012 2.499995
v -3.500011 -4.500005 3.499999
v -5.500010 -1.500002 2.499995
v -4.500005 -1.500002 2.499995
v -4.500005 -0.500009 2.499995
v -3.500011 -1.500002 2.499995
v -3.500011 -0.500009 2.499995
v -4.500005 -0.500009 3.500000
v -3.500011 -0.500009 3.500000
v -3.500011 -0.500009 4.499993
v -2.500007 -3.500012 2.499995
v -2.500007 -4.500005 3.499999
v -2.500007 -4.500006 4.499992
v -2.500007 -3.500012 3.500000
v -2.500007 -1.500002 2.499995
v -2.500007 -0.500009 2.499995
v -1.500001 -0.500009 1.499990
v -0.500008 -0.500009 0.499997
v -0.500008 -0.500009 1.499990
v -1.500001 -0.500009 2.499995
v -0.500008 -0.500009 2.499995
v -2.500007 -1.500002 3.500000
v -2.500007 -0.500009 3.500000
v -2.500007 -0.500009 4.499993
v -2.500007 -0.500009 5.499998
v -1.145833 -0.500009 3.500000
v -4.500005 0.499997 -3.500011
v -3.500011 0.499997 -4.500005
v -3.500011 0.499997 -3.500011
v -5.500010 0.499997 -2.500007
v -4.500005 0.499997 -2.500007
v -3.500011 0.499997 -2.500007
v -2.500007 0.499998 -5.500010
v -2.500007 0.499997 -4.500005
v -2.500007 0.499997 -3.500011
v -2.500007 0.499997 -2.500007
v -0.500008 1.499990 -0.500008
v -0.500008 2.499996 -2.500006
v -0.500008 2.499995 -1.500001
v -2.500007 4.499994 -1.500001
v -2.500007 4.499993 -0.500007
v -1.500001 4.499994 -1.500001
v -1.500001 4.499993 -0.500007
v -5.500010 0.499996 2.499995
v -4.500005 0.499996 2.499995
v -3.500011 0.499996 2.499995
v -4.500005 0.499996 3.500000
v -3.500011 0.499996 3.500000
v -3.500011 0.499996 4.499993
v -2.500007 0.499996 2.499995
v -0.500008 1.499990 0.499997
v -1.500001 2.499995 1.499990
v -0.500008 2.499995 1.499990
v -1.500001 2.499995 2.499996
v -0.500008 2.499995 2.499996
v -2.500007 0.499996 3.500000
v -2.500007 0.499996 4.499993
v -2.500007 0.499996 5.499998
v 2.499995 -4.500004 -4.500006
v 2.499995 -4.500004 -3.500012
v 2.499995 -3.500011 -3.500012
v 2.499995 -3.500011 -2.500007
v 2.499995 -0.500007 -5.500010
v 2.499995 -1.500001 -3.500012
v 2.499995 -0.500007 -4.500005
v 2.499995 -0.500008 -3.500011
v 0.499997 -0.500008 -2.500007
v 0.499997 -0.500008 -1.500002
v 0.499997 -0.500009 -0.500008
v 1.499990 -0.500008 -1.500002
v 1.499990 -0.500009 -0.500008
v 2.499995 -1.500002 -2.500007
v 2.499995 -0.500008 -2.500007
v 2.499995 -0.500008 -1.500002
v 2.499995 -0.500009 -0.500008
v 3.500000 -4.500004 -3.500012
v 3.500000 -4.500004 -2.500007
v 3.500000 -3.500011 -2.500007
v 4.499993 -4.500004 -2.500007
v 3.500000 -0.500007 -4.500005
v 3.500000 -0.500008 -3.500011
v 4.499993 -0.500008 -3.500011
v 3.500000 -1.500001 -2.500007
v 3.500000 -0.500008 -2.500007
v 4.499993 -0.500008 -2.500007
v 5.499998 -0.500008 -2.500007
v 2.499995 -3.500012 2.499995
v 2.499995 -4.500005 3.499999
v 2.499995 -4.500006 4.499992
v 2.499995 -3.500012 3.500000
v 0.499997 -0.500008 0.499997
v 0.499997 -0.500009 1.499990
v 1.499990 -0.500009 0.499997
v 1.499990 -0.500009 1.499990
v 2.499995 -1.500002 2.499995
v 2.499995 -0.500009 2.499995
v 2.499995 -1.500002 3.500000
v 2.499995 -0.500009 3.500000
v 2.499995 -0.500009 4.499993
v 2.499995 -0.500009 5.499998
v 3.500000 -4.500005 2.499995
v 3.500000 -3.500012 2.499995
v 4.499993 -4.500005 2.499995
v 3.500000 -4.500005 3.499999
v 3.500000 -1.500002 2.499995
v 3.500000 -0.500009 2.499995
v 4.499993 -0.500009 2.499995
v 5.499998 -0.500009 2.499995
v 3.500000 -0.500009 3.500000
v 3.500000 -0.500009 4.499993
v 4.499993 -0.500009 3.500000
v 2.499995 0.499998 -5.500010
v 2.499995 0.499997 -4.500005
v 2.499995 0.499997 -3.500011
v 0.499997 1.499990 -0.500008
v 0.499997 2.499996 -2.500006
v 0.499997 2.499995 -1.500001
v 2.499995 0.499997 -2.500007
v 1.499990 3.500000 -1.500001
v 1.499990 3.500000 -0.500008
v 2.499995 3.500000 -1.500001
v 2.499995 3.500000 -0.500008
v 3.500000 0.499997 -4.500005
v 3.500000 0.499997 -3.500011
v 4.499993 0.499997 -3.500011
v 3.500000 0.499997 -2.500007
v 4.499993 0.499997 -2.500007
v 5.499998 0.499997 -2.500007
v 0.499997 1.499990 0.499997
v 0.499997 2.499995 0.499997
v 0.499997 2.499995 1.499990
v 1.499990 2.499995 0.499997
v 1.499990 2.499995 1.499990
v 2.499995 0.499996 2.499995
v 2.499995 0.499996 3.500000
v 2.499995 0.499996 4.499993
v 2.499995 0.499996 5.499998
v 3.500000 0.499996 2.499995
v 4.499993 0.499996 2.499995
v 5.499998 0.499996 2.499995
v 3.500000 0.499996 3.500000
v 3.500000 0.499996 4.499993
v 4.499993 0.499996 3.500000
vt 0.007463 0.634327
vt 0.037314 0.634327
vt 0.037314 0.664178
vt 0.067164 0.664178
vt 0.067164 0.694029
vt 0.067164 0.753730
vt 0.067164 0.783581
vt 0.037314 0.783581
vt 0.037314 0.694029
vt 0.007463 0.694029
vt 0.708955 0.320895
vt 0.708955 0.171642
vt 0.768657 0.171642
vt 0.768657 0.320895
vt 0.141791 0.634327
vt 0.141791 0.783581
vt 0.082089 0.783581
vt 0.082089 0.634327
vt 0.694030 0.813432
vt 0.664179 0.813432
vt 0.664179 0.664178
vt 0.694030 0.664178
vt 0.007463 0.888059
vt 0.007463 0.828357
vt 0.007463 0.798506
vt 0.037313 0.798506
vt 0.037313 0.917909
vt 0.007463 0.917909
vt 0.395522 0.828358
vt 0.395522 0.679104
vt 0.425372 0.679104
vt 0.425372 0.828358
vt 0.783582 0.664178
vt 0.783582 0.813432
vt 0.753732 0.813432
vt 0.753732 0.664178
vt 0.276119 0.559701
vt 0.246269 0.559701
vt 0.246269 0.589552
vt 0.216418 0.589552
vt 0.216418 0.619402
vt 0.067164 0.619402
vt 0.067164 0.589552
vt 0.037313 0.589552
vt 0.037313 0.559701
vt 0.007463 0.559701
vt 0.007463 0.410447
vt 0.037313 0.410447
vt 0.037313 0.380596
vt 0.067164 0.380596
vt 0.067164 0.350746
vt 0.216418 0.350746
vt 0.216418 0.380596
vt 0.246268 0.380596
vt 0.246268 0.410447
vt 0.276119 0.410447
vt 0.753731 0.977611
vt 0.753731 0.947760
vt 0.783582 0.947760
vt 0.783582 0.977611
vt 0.917910 0.141791
vt 0.917910 0.082090
vt 0.947761 0.082090
vt 0.947761 0.141791
vt 0.216418 0.664178
vt 0.216418 0.723880
vt 0.216418 0.753730
vt 0.186567 0.753730
vt 0.186567 0.783581
vt 0.156716 0.783581
vt 0.156716 0.723880
vt 0.186567 0.723880
vt 0.186567 0.634327
vt 0.216418 0.634327
vt 0.992537 0.126866
vt 0.962687 0.126866
vt 0.962687 0.097015
vt 0.992537 0.097015
vt 0.888060 0.843283
vt 0.917911 0.843283
vt 0.917911 0.902984
vt 0.888060 0.902985
vt 0.873135 0.694029
vt 0.873135 0.753730
vt 0.873135 0.783581
vt 0.843284 0.783581
vt 0.843284 0.664178
vt 0.873135 0.664178
vt 0.843284 0.529850
vt 0.843284 0.499999
vt 0.873135 0.499999
vt 0.873135 0.619402
vt 0.843284 0.619402
vt 0.843284 0.589552
vt 0.873134 0.395522
vt 0.873134 0.276119
vt 0.902985 0.276119
vt 0.902985 0.305970
vt 0.902985 0.365672
vt 0.902985 0.395522
vt 0.708955 0.335820
vt 0.768657 0.335820
vt 0.768657 0.485074
vt 0.708955 0.485074
vt 0.694030 0.917909
vt 0.664179 0.917909
vt 0.664179 0.828357
vt 0.694030 0.828357
vt 0.753731 0.888059
vt 0.753731 0.828357
vt 0.783582 0.828357
vt 0.783582 0.888059
vt 0.962687 0.037314
vt 0.962687 0.007463
vt 0.992537 0.007463
vt 0.992537 0.037313
vt 0.873134 0.977611
vt 0.843284 0.977611
vt 0.843284 0.947760
vt 0.873134 0.947760
vt 0.261194 0.888059
vt 0.231343 0.888059
vt 0.231343 0.798506
vt 0.261194 0.798506
vt 0.291044 0.828357
vt 0.291044 0.679104
vt 0.320895 0.679104
vt 0.320895 0.828357
vt 0.082090 0.962685
vt 0.052239 0.962685
vt 0.052239 0.932834
vt 0.082090 0.932834
vt 0.335821 0.097015
vt 0.335821 0.246268
vt 0.305970 0.246268
vt 0.276119 0.246268
vt 0.276119 0.097015
vt 0.246268 0.097015
vt 0.246268 0.067164
vt 0.097015 0.067164
vt 0.097015 0.097015
vt 0.067164 0.097015
vt 0.067164 0.246268
vt 0.097015 0.246268
vt 0.097015 0.276119
vt 0.246269 0.276119
vt 0.246269 0.305970
vt 0.246269 0.335821
vt 0.097015 0.335821
vt 0.097015 0.305970
vt 0.067164 0.305970
vt 0.067164 0.276119
vt 0.037314 0.276119
vt 0.037314 0.246268
vt 0.007463 0.246268
vt 0.007463 0.097015
vt 0.037314 0.097015
vt 0.037314 0.067164
vt 0.067164 0.067164
vt 0.067164 0.037314
vt 0.097015 0.037314
vt 0.097015 0.007463
vt 0.246268 0.007463
vt 0.246268 0.037314
vt 0.276119 0.037313
vt 0.276119 0.067164
vt 0.305970 0.067164
vt 0.305970 0.097015
vt 0.350746 0.828358
vt 0.350746 0.679104
vt 0.380597 0.679104
vt 0.380597 0.828358
vt 0.291044 0.350746
vt 0.320895 0.350746
vt 0.320895 0.499999
vt 0.291044 0.499999
vt 0.798508 0.798506
vt 0.828359 0.798506
vt 0.828359 0.888058
vt 0.798508 0.888058
vt 0.261194 0.783581
vt 0.231343 0.783581
vt 0.231343 0.634327
vt 0.261194 0.634327
vt 0.246269 0.246268
vt 0.305970 0.276119
vt 0.276119 0.276119
vt 0.276119 0.305970
vt 0.529850 0.813433
vt 0.559701 0.813433
vt 0.559701 0.902985
vt 0.529850 0.902985
vt 0.902985 0.126866
vt 0.873134 0.126866
vt 0.873134 0.007463
vt 0.902985 0.007463
vt 0.947761 0.291044
vt 0.917910 0.291044
vt 0.917910 0.231343
vt 0.947761 0.231343
vt 0.858209 0.007463
vt 0.858209 0.126865
vt 0.828358 0.126865
vt 0.828358 0.097015
vt 0.828358 0.037313
vt 0.828358 0.007463
vt 0.932836 0.858209
vt 0.932836 0.828358
vt 0.962687 0.828358
vt 0.962687 0.858209
vt 0.917910 0.216418
vt 0.917910 0.156716
vt 0.947761 0.156716
vt 0.947761 0.216418
vt 0.440298 0.798507
vt 0.440298 0.679104
vt 0.470149 0.679104
vt 0.470149 0.798507
vt 0.171641 0.828357
vt 0.171641 0.888059
vt 0.171641 0.917909
vt 0.141790 0.917909
vt 0.141790 0.798506
vt 0.171641 0.798506
vt 0.798508 0.694029
vt 0.798508 0.664178
vt 0.828359 0.664178
vt 0.828359 0.783581
vt 0.798508 0.783581
vt 0.798508 0.753730
vt 0.574627 0.485074
vt 0.574627 0.335820
vt 0.694030 0.335820
vt 0.694030 0.485074
vt 0.768657 0.156716
vt 0.708955 0.156716
vt 0.708955 0.007463
vt 0.768657 0.007463
vt 0.529851 0.261194
vt 0.559701 0.261194
vt 0.559701 0.410448
vt 0.529851 0.410448
vt 0.529851 0.440298
vt 0.489428 0.440298
vt 0.500000 0.410448
vt 0.500000 0.380597
vt 0.500000 0.350746
vt 0.529851 0.350746
vt 0.529851 0.320895
vt 0.500000 0.320895
vt 0.500000 0.291045
vt 0.500000 0.261194
vt 0.470149 0.261194
vt 0.470149 0.291045
vt 0.470149 0.320895
vt 0.440298 0.320895
vt 0.440298 0.291045
vt 0.410448 0.291045
vt 0.410448 0.320895
vt 0.410448 0.350746
vt 0.380597 0.350746
vt 0.380597 0.380597
vt 0.350746 0.370025
vt 0.350746 0.261194
vt 0.380597 0.261194
vt 0.380597 0.231343
vt 0.529851 0.231343
vt 0.216417 0.828357
vt 0.216417 0.888059
vt 0.216417 0.917909
vt 0.186566 0.917909
vt 0.186566 0.798506
vt 0.216417 0.798506
vt 0.097015 0.962685
vt 0.097015 0.932834
vt 0.126866 0.932834
vt 0.126866 0.962685
vt 0.917911 0.753730
vt 0.888060 0.753730
vt 0.888060 0.664178
vt 0.917911 0.664178
vt 0.694030 0.007463
vt 0.694030 0.156716
vt 0.574627 0.156716
vt 0.574627 0.007463
vt 0.932836 0.768656
vt 0.932836 0.738805
vt 0.962687 0.738805
vt 0.962687 0.768656
vt 0.873134 0.141791
vt 0.902985 0.141791
vt 0.902985 0.261194
vt 0.873134 0.261194
vt 0.962687 0.544775
vt 0.962687 0.574626
vt 0.932836 0.574626
vt 0.932836 0.544775
vt 0.261193 0.977611
vt 0.231343 0.977611
vt 0.231343 0.947760
vt 0.261193 0.947760
vt 0.992537 0.440298
vt 0.962687 0.440298
vt 0.962687 0.410448
vt 0.992537 0.410448
vt 0.380597 0.843283
vt 0.380597 0.902985
vt 0.350746 0.902985
vt 0.350746 0.843283
vt 0.828358 0.231343
vt 0.828358 0.171641
vt 0.828358 0.141791
vt 0.858209 0.141791
vt 0.858209 0.261193
vt 0.828358 0.261193
vt 0.037314 0.962685
vt 0.007463 0.962685
vt 0.007463 0.932834
vt 0.037314 0.932834
vt 0.738806 0.828357
vt 0.738806 0.917909
vt 0.708955 0.917909
vt 0.708955 0.828357
vt 0.097014 0.917909
vt 0.097014 0.798506
vt 0.126865 0.798506
vt 0.126865 0.828357
vt 0.126865 0.888059
vt 0.126865 0.917909
vt 0.082089 0.798506
vt 0.082089 0.917909
vt 0.052239 0.917909
vt 0.052239 0.888059
vt 0.052239 0.828357
vt 0.052239 0.798506
vt 0.888060 0.828357
vt 0.888060 0.768656
vt 0.917911 0.768656
vt 0.917911 0.828357
vt 0.738806 0.649253
vt 0.679104 0.649253
vt 0.679104 0.499999
vt 0.738806 0.499999
vt 0.291044 0.902984
vt 0.291044 0.843283
vt 0.320895 0.843283
vt 0.320895 0.902984
vt 0.380597 0.037314
vt 0.380597 0.007463
vt 0.529851 0.007463
vt 0.529851 0.037313
vt 0.559701 0.037313
vt 0.559701 0.186567
vt 0.529851 0.186567
vt 0.529851 0.216418
vt 0.380597 0.216418
vt 0.380597 0.186567
vt 0.350746 0.186567
vt 0.350746 0.037314
vt 0.932836 0.813433
vt 0.932836 0.783582
vt 0.962687 0.783582
vt 0.962687 0.813433
vt 0.574627 0.320895
vt 0.574627 0.171642
vt 0.694029 0.171642
vt 0.694030 0.320895
vt 0.873134 0.470149
vt 0.873134 0.410448
vt 0.902985 0.410448
vt 0.902985 0.470149
vt 0.529850 0.798507
vt 0.529850 0.679104
vt 0.559701 0.679104
vt 0.559701 0.708955
vt 0.559701 0.768657
vt 0.559701 0.798507
vt 0.992537 0.305971
vt 0.962687 0.305971
vt 0.962687 0.276120
vt 0.992537 0.276120
vt 0.917910 0.067164
vt 0.917910 0.007463
vt 0.947761 0.007463
vt 0.947761 0.067164
vt 0.843284 0.888058
vt 0.843284 0.798506
vt 0.873135 0.798506
vt 0.873135 0.888058
vt 0.470149 0.962687
vt 0.470149 0.992537
vt 0.440298 0.992537
vt 0.440298 0.962687
vt 0.992537 0.082090
vt 0.962687 0.082090
vt 0.962687 0.052239
vt 0.992537 0.052239
vt 0.888060 0.499999
vt 0.917911 0.499999
vt 0.917911 0.589552
vt 0.888060 0.589552
vt 0.708955 0.813432
vt 0.708955 0.664178
vt 0.738806 0.664178
vt 0.738806 0.813432
vt 0.828358 0.395521
vt 0.828358 0.276119
vt 0.858209 0.276119
vt 0.858209 0.305969
vt 0.858209 0.365671
vt 0.858209 0.395521
vt 0.992537 0.171642
vt 0.962687 0.171642
vt 0.962687 0.141791
vt 0.992537 0.141791
vt 0.962687 0.350747
vt 0.962687 0.320896
vt 0.992537 0.320896
vt 0.992537 0.350747
vt 0.947761 0.305970
vt 0.947761 0.365671
vt 0.917910 0.365671
vt 0.917910 0.305970
vt 0.858209 0.470148
vt 0.828358 0.470148
vt 0.828358 0.410447
vt 0.858209 0.410447
vt 0.798508 0.619402
vt 0.798508 0.499999
vt 0.828359 0.499999
vt 0.828359 0.529850
vt 0.828359 0.589552
vt 0.828359 0.619402
vt 0.962687 0.723880
vt 0.932836 0.723880
vt 0.932836 0.694029
vt 0.962687 0.694029
vt 0.873135 0.902984
vt 0.873135 0.932835
vt 0.843284 0.932835
vt 0.843284 0.902984
vt 0.962687 0.679104
vt 0.932836 0.679104
vt 0.932836 0.649253
vt 0.962687 0.649253
vt 0.291044 0.917910
vt 0.320895 0.917910
vt 0.320895 0.947760
vt 0.291044 0.947760
vt 0.649254 0.932835
vt 0.649254 0.962686
vt 0.619403 0.962686
vt 0.619403 0.932835
vt 0.783582 0.499999
vt 0.783582 0.649253
vt 0.753731 0.649253
vt 0.753731 0.499999
vt 0.828358 0.977611
vt 0.798508 0.977611
vt 0.798508 0.947760
vt 0.828358 0.947760
vt 0.350746 0.992537
vt 0.350746 0.962687
vt 0.380597 0.962687
vt 0.380597 0.992537
vt 0.485074 0.798507
vt 0.485074 0.679104
vt 0.514925 0.679104
vt 0.514925 0.798507
vt 0.291044 0.514925
vt 0.320895 0.514925
vt 0.320895 0.664178
vt 0.291044 0.664178
vt 0.350746 0.917910
vt 0.380597 0.917910
vt 0.380597 0.947761
vt 0.350746 0.947761
vt 0.962687 0.604477
vt 0.962687 0.634328
vt 0.932836 0.634328
vt 0.932836 0.604477
vt 0.962687 0.529850
vt 0.932836 0.529850
vt 0.932836 0.499999
vt 0.962687 0.499999
vt 0.529850 0.917910
vt 0.559701 0.917910
vt 0.559701 0.947761
vt 0.529850 0.947761
vt 0.574627 0.858208
vt 0.574627 0.828357
vt 0.604477 0.828357
vt 0.604477 0.917909
vt 0.574627 0.917909
vt 0.485074 0.902985
vt 0.485074 0.813433
vt 0.514925 0.813433
vt 0.514925 0.902985
vt 0.888060 0.604477
vt 0.917911 0.604477
vt 0.917911 0.634328
vt 0.888060 0.634328
vt 0.440298 0.902985
vt 0.440298 0.813433
vt 0.470149 0.813433
vt 0.470149 0.902985
vt 0.992537 0.261194
vt 0.962687 0.261194
vt 0.962687 0.231344
vt 0.992537 0.231344
vt 0.992537 0.186567
vt 0.992537 0.216418
vt 0.962687 0.216418
vt 0.962687 0.186567
vt 0.783582 0.335820
vt 0.813433 0.335820
vt 0.813433 0.444651
vt 0.813433 0.485074
vt 0.783582 0.485074
vt 0.261194 0.932835
vt 0.231343 0.932835
vt 0.231343 0.902984
vt 0.261194 0.902984
vt 0.783582 0.932835
vt 0.753731 0.932835
vt 0.753731 0.902984
vt 0.783582 0.902984
vt 0.440298 0.947761
vt 0.440298 0.917910
vt 0.470149 0.917910
vt 0.470149 0.947761
vt 0.574627 0.932835
vt 0.604478 0.932835
vt 0.604478 0.962685
vt 0.574627 0.962685
vt 0.619403 0.917909
vt 0.619403 0.828357
vt 0.649254 0.828357
vt 0.649254 0.858208
vt 0.649254 0.917909
vt 0.813433 0.007463
vt 0.813433 0.156716
vt 0.783582 0.156716
vt 0.783582 0.007463
vt 0.395522 0.962687
vt 0.425373 0.962687
vt 0.425373 0.992537
vt 0.395522 0.992537
vt 0.320895 0.962686
vt 0.320895 0.992537
vt 0.291044 0.992537
vt 0.291044 0.962686
vt 0.828359 0.932835
vt 0.798508 0.932835
vt 0.798508 0.902984
vt 0.828359 0.902984
vt 0.917911 0.917910
vt 0.917911 0.947761
vt 0.888060 0.947761
vt 0.888060 0.917910
vt 0.947762 0.410448
vt 0.947762 0.440298
vt 0.917911 0.440298
vt 0.917911 0.410448
vt 0.171642 0.962685
vt 0.141791 0.962685
vt 0.141791 0.932834
vt 0.171642 0.932834
vt 0.664180 0.962686
vt 0.664180 0.932835
vt 0.694030 0.932835
vt 0.694030 0.962686
vt 0.350746 0.410448
vt 0.410448 0.380597
vt 0.440298 0.350746
vt 0.470149 0.350746
vt 0.470149 0.380597
vt 0.470149 0.410448
vt 0.380597 0.440298
vt 0.380597 0.410448
vt 0.380597 0.664179
vt 0.380597 0.634328
vt 0.350746 0.634328
vt 0.350746 0.485075
vt 0.380597 0.485075
vt 0.380597 0.455224
vt 0.529851 0.455224
vt 0.529851 0.485075
vt 0.559701 0.485075
vt 0.559701 0.634328
vt 0.529851 0.634328
vt 0.529851 0.664179
vt 0.783582 0.171642
vt 0.813433 0.171642
vt 0.813433 0.320895
vt 0.783582 0.320895
vt 0.574627 0.499999
vt 0.664179 0.499999
vt 0.664179 0.649253
vt 0.574627 0.649253
vt 0.649254 0.813432
vt 0.619403 0.813432
vt 0.619403 0.704601
vt 0.619403 0.664178
vt 0.649254 0.664178
vt 0.574627 0.664178
vt 0.604478 0.664178
vt 0.604478 0.813432
vt 0.574627 0.813432
vt 0.485074 0.917910
vt 0.514925 0.917910
vt 0.514925 0.947761
vt 0.485074 0.947761
vn -0.0000 0.0000 -1.0000
vn 1.0000 0.0000 0.0000
vn -1.0000 0.0000 0.0000
vn 0.0000 -1.0000 -0.0000
vn 0.0000 -0.0000 1.0000
vn 0.0000 1.0000 0.0000
usemtl palette
s off
f 62/1/1 63/2/1 10/3/1 12/4/1 11/5/1 4/6/1 3/7/1 2/8/1 9/9/1 8/10/1
f 33/11/2 4/12/2 11/13/2 38/14/2
f 76/15/3 62/16/3 8/17/3 35/18/3
f 8/19/4 9/20/4 36/21/4 35/22/4
f 16/23/3 19/24/3 21/25/3 20/26/3 14/27/3 15/28/3
f 25/29/3 73/30/3 72/31/3 24/32/3
f 97/33/4 20/34/4 18/35/4 95/36/4
f 91/37/4 92/38/4 108/39/4 109/40/4 111/41/4 135/42/4 133/43/4 136/44/4 120/45/4 121/46/4 45/47/4 44/48/4 34/49/4 32/50/4 31/51/4 2/52/4 3/53/4 1/54/4 15/55/4 14/56/4
f 6/57/4 20/58/4 21/59/4 7/60/4
f 161/61/2 123/62/2 101/63/2 147/64/2
f 33/65/5 38/66/5 39/67/5 37/68/5 77/69/5 76/70/5 35/71/5 36/72/5 31/73/5 32/74/5
f 5/75/4 7/76/4 12/77/4 10/78/4
f 93/79/3 94/80/3 104/81/3 96/82/3
f 46/83/5 54/84/5 55/85/5 41/86/5 34/87/5 44/88/5
f 11/89/3 12/90/3 7/91/3 1/92/3 3/93/3 4/94/3
f 45/95/3 56/96/3 55/97/3 54/98/3 46/99/3 44/100/3
f 129/101/1 122/102/1 46/103/1 54/104/1
f 126/105/2 125/106/2 164/107/2 165/108/2
f 33/109/1 38/110/1 47/111/1 43/112/1
f 41/113/4 55/114/4 56/115/4 42/116/4
f 37/117/4 39/118/4 41/119/4 40/120/4
f 85/121/2 87/122/2 53/123/2 51/124/2
f 65/125/1 144/126/1 95/127/1 18/128/1
f 18/129/3 20/130/3 66/131/3 65/132/3
f 144/133/6 65/134/6 66/135/6 67/136/6 146/137/6 150/138/6 158/139/6 170/140/6 166/141/6 167/142/6 88/143/6 82/144/6 78/145/6 64/146/6 63/147/6 62/148/6 76/149/6 77/150/6 79/151/6 80/152/6 81/153/6 89/154/6 90/155/6 169/156/6 168/157/6 174/158/6 173/159/6 175/160/6 171/161/6 172/162/6 160/163/6 159/164/6 157/165/6 156/166/6 155/167/6 145/168/6
f 75/169/2 28/170/2 27/171/2 74/172/2
f 72/173/1 74/174/1 27/175/1 24/176/1
f 71/177/3 70/178/3 26/179/3 29/180/3
f 75/181/5 73/182/5 25/183/5 28/184/5
f 64/146/6 68/185/6 67/136/6 66/135/6 60/186/6 61/187/6 59/188/6 63/147/6
f 149/189/5 71/190/5 29/191/5 100/192/5
f 107/193/2 106/194/2 153/195/2 154/196/2
f 30/197/3 50/198/3 83/199/3 69/200/3
f 136/201/5 141/202/5 130/203/5 129/204/5 122/205/5 120/206/5
f 152/207/6 154/208/6 153/209/6 151/210/6
f 30/211/1 69/212/1 147/213/1 101/214/1
f 102/215/1 151/216/1 153/217/1 106/218/1
f 96/219/2 93/220/2 92/221/2 91/222/2 97/223/2 98/224/2
f 96/225/1 98/226/1 113/227/1 108/228/1 92/229/1 93/230/1
f 20/231/1 97/232/1 91/233/1 14/234/1
f 19/235/5 16/236/5 93/237/5 96/238/5
f 105/239/6 98/240/6 21/241/6 23/242/6 12/243/6 13/244/6 24/245/6 27/246/6 29/247/6 26/248/6 99/249/6 100/250/6 102/251/6 106/252/6 107/253/6 103/254/6 101/255/6 123/256/6 125/257/6 126/258/6 124/259/6 51/260/6 53/261/6 52/262/6 58/263/6 130/264/6 128/265/6 138/266/6 116/267/6
f 110/268/1 115/269/1 116/270/1 117/271/1 111/272/1 109/273/1
f 144/274/2 145/275/2 97/276/2 95/277/2
f 87/278/5 86/279/5 52/280/5 53/281/5
f 135/282/2 111/283/2 117/284/2 139/285/2
f 97/286/4 112/287/4 113/288/4 98/289/4
f 152/290/3 151/291/3 102/292/3 103/293/3
f 168/294/2 169/295/2 132/296/2 131/297/2
f 75/298/6 74/299/6 72/300/6 73/301/6
f 113/302/4 114/303/4 117/304/4 116/305/4
f 110/306/5 115/307/5 104/308/5 94/309/5
f 115/310/2 110/311/2 109/312/2 108/313/2 113/314/2 116/315/2
f 56/316/3 57/317/3 90/318/3 89/319/3
f 126/320/5 165/321/5 163/322/5 124/323/5
f 131/324/2 121/325/2 120/326/2 122/327/2 129/328/2 130/329/2
f 135/330/5 139/331/5 138/332/5 137/333/5 134/334/5 133/335/5
f 22/336/2 17/337/2 16/338/2 19/339/2
f 115/340/3 110/341/3 134/342/3 137/343/3
f 119/344/1 127/345/1 137/346/1 134/347/1
f 47/348/4 38/349/4 11/350/4 22/351/4 19/352/4 96/353/4 104/354/4 115/355/4 137/356/4 127/357/4 129/358/4 54/359/4
f 130/360/4 141/361/4 142/362/4 131/363/4
f 45/364/5 121/365/5 131/366/5 56/367/5
f 122/368/3 129/369/3 127/370/3 119/371/3
f 141/372/2 136/373/2 133/374/2 134/375/2 137/376/2 138/377/2
f 138/378/4 139/379/4 143/380/4 141/381/4
f 17/382/5 22/383/5 11/384/5 4/385/5
f 149/386/2 100/387/2 99/388/2 148/389/2
f 163/390/6 165/391/6 164/392/6 162/393/6
f 85/394/6 84/395/6 86/396/6 87/397/6
f 84/398/1 85/399/1 51/400/1 49/401/1
f 56/402/4 131/403/4 132/404/4 57/405/4
f 34/406/3 41/407/3 39/408/3 38/409/3 33/410/3 32/411/3
f 6/412/3 7/413/3 61/414/3 60/415/3
f 5/416/1 59/417/1 61/418/1 7/419/1
f 123/420/5 161/421/5 83/422/5 50/423/5
f 46/424/2 43/425/2 47/426/2 54/427/2
f 1/428/1 7/429/1 21/430/1 19/431/1 16/432/1 15/433/1
f 5/434/3 10/435/3 63/436/3 59/437/3
f 67/438/2 68/439/2 23/440/2 21/441/2
f 6/442/1 60/443/1 66/444/1 20/445/1
f 23/446/5 68/447/5 64/448/5 12/449/5
f 172/450/5 171/451/5 139/452/5 140/453/5
f 146/454/5 67/455/5 21/456/5 98/457/5
f 155/458/2 156/459/2 113/460/2 112/461/2
f 113/462/1 156/463/1 157/464/1 114/465/1
f 152/466/5 103/467/5 107/468/5 154/469/5
f 138/470/3 170/471/3 158/472/3 116/473/3
f 98/474/3 105/475/3 150/476/3 146/477/3
f 157/478/2 159/479/2 117/480/2 114/481/2
f 97/482/1 145/483/1 155/484/1 112/485/1
f 116/486/5 158/487/5 150/488/5 105/489/5
f 161/490/1 162/491/1 164/492/1 125/493/1 123/494/1
f 26/495/1 70/496/1 148/497/1 99/498/1
f 71/499/6 149/500/6 148/501/6 70/502/6
f 52/503/3 86/504/3 84/505/3 49/506/3
f 41/507/3 42/508/3 81/509/3 80/510/3
f 41/511/5 80/512/5 79/513/5 40/514/5
f 167/515/1 130/516/1 58/517/1 55/518/1 88/519/1
f 37/520/3 40/521/3 79/522/3 77/523/3
f 82/524/2 88/525/2 55/526/2 48/527/2
f 39/528/1 78/529/1 82/530/1 48/531/1
f 56/532/5 89/533/5 81/534/5 42/535/5
f 124/536/3 163/537/3 162/538/3 161/539/3 123/540/3
f 169/541/5 90/542/5 57/543/5 132/544/5
f 173/545/2 174/546/2 142/547/2 141/548/2
f 143/549/5 175/550/5 173/551/5 141/552/5
f 128/553/3 130/554/3 167/555/3 166/556/3
f 171/557/2 175/558/2 143/559/2 139/560/2
f 128/561/1 166/562/1 170/563/1 138/564/1
f 142/565/5 174/566/5 168/567/5 131/568/5
f 117/569/1 159/570/1 160/571/1 118/572/1
f 55/573/6 58/263/6 52/262/6 49/574/6 51/260/6 124/259/6 123/256/6 50/575/6 30/576/6 101/255/6 103/254/6 102/251/6 100/250/6 29/247/6 27/246/6 28/577/6 25/578/6 24/245/6 13/244/6 39/579/6 48/580/6
f 33/581/6 43/582/6 46/583/6 122/584/6 119/585/6 134/586/6 110/587/6 94/588/6 93/589/6 16/590/6 17/591/6 4/592/6
f 140/593/4 139/594/4 117/595/4 118/596/4
f 31/597/3 36/598/3 9/599/3 2/600/3
f 78/601/2 39/602/2 13/603/2 12/604/2 64/605/2
f 172/606/2 140/607/2 118/608/2 160/609/2
f 83/610/6 161/611/6 147/612/6 69/613/6
