# Blender v2.79 (sub 0) OBJ File: ''
# www.blender.org
mtllib platform_spiral_no_borders.mtl
o platform_spiral_no_borders_no_opt.001
v -8.000014 1.000001 -8.000014
v -7.000004 -0.000009 -7.000004
v -7.000004 1.000001 -7.000004
v 6.999987 -0.000009 -7.000004
v 6.999987 1.000001 -7.000004
v -7.000004 -0.000011 6.999987
v -7.000004 0.999999 6.999987
v 6.999987 -0.000011 6.999987
v -8.000014 1.999995 -8.000014
v -8.000014 1.999992 7.999996
v -8.000014 0.999999 7.999996
v 7.999996 1.000001 -8.000014
v 6.999987 0.999999 6.999987
v 7.999996 0.999999 7.999996
v 7.999996 1.999995 -8.000014
v 7.999996 1.999992 7.999996
vt 0.963414 0.463414
vt 0.963414 0.036586
vt 0.993903 0.493902
vt 0.006098 0.932926
vt 0.432926 0.506098
vt 0.432926 0.932926
vt 0.615852 0.506098
vt 0.646340 0.506098
vt 0.615852 0.932926
vt 0.993902 0.006098
vt 0.536586 0.036586
vt 0.506098 0.006098
vt 0.475609 0.506098
vt 0.475609 0.993902
vt 0.445121 0.993902
vt 0.530487 0.506098
vt 0.560975 0.506098
vt 0.560975 0.993902
vt 0.518292 0.993902
vt 0.487804 0.993902
vt 0.518292 0.506098
vt 0.006098 0.006098
vt 0.493902 0.006098
vt 0.006098 0.493902
vt 0.506098 0.493902
vt 0.536586 0.463414
vt 0.006098 0.506098
vt 0.743902 0.932926
vt 0.774390 0.506098
vt 0.774390 0.932926
vt 0.731707 0.932926
vt 0.701219 0.932926
vt 0.731707 0.506098
vt 0.646341 0.932926
vt 0.743902 0.506098
vt 0.530487 0.993902
vt 0.493903 0.493902
vt 0.701219 0.506098
vt 0.689024 0.506098
vt 0.689024 0.932926
vt 0.658536 0.932926
vt 0.658536 0.506098
vt 0.603657 0.993902
vt 0.573170 0.993902
vt 0.603657 0.506098
vt 0.573170 0.506098
vt 0.445121 0.506098
vt 0.487804 0.506098
vn -0.0000 -1.0000 -0.0000
vn -1.0000 0.0000 0.0000
vn 0.0000 0.0000 -1.0000
vn 0.0000 0.0000 1.0000
vn 0.0000 1.0000 0.0000
vn 1.0000 0.0000 0.0000
usemtl palette
s off
f 3/1/1 7/2/1 1/3/1
f 4/4/1 6/5/1 2/6/1
f 6/7/2 7/8/2 2/9/2
f 7/2/1 11/10/1 1/3/1
f 13/11/1 11/10/1 7/2/1
f 13/11/1 14/12/1 11/10/1
f 10/13/2 9/14/2 1/15/2
f 15/16/3 12/17/3 1/18/3
f 10/19/4 11/20/4 16/21/4
f 16/22/5 15/23/5 10/24/5
f 12/25/1 5/26/1 1/3/1
f 4/4/1 8/27/1 6/5/1
f 13/28/4 6/29/4 8/30/4
f 13/31/6 8/32/6 5/33/6
f 14/12/1 13/11/1 5/26/1
f 2/9/2 7/8/2 3/34/2
f 1/3/1 5/26/1 3/1/1
f 13/28/4 7/35/4 6/29/4
f 9/36/3 15/16/3 1/18/3
f 15/23/5 9/37/5 10/24/5
f 5/33/6 8/32/6 4/38/6
f 12/25/1 14/12/1 5/26/1
f 4/39/3 2/40/3 3/41/3 5/42/3
f 16/43/6 14/44/6 15/45/6
f 15/45/6 14/44/6 12/46/6
f 1/15/2 11/47/2 10/13/2
f 16/21/4 11/20/4 14/48/4
