# Blender v2.79 (sub 0) OBJ File: ''
# www.blender.org
mtllib tower_ring.mtl
o OPT_ring_fitted.001
v -32.000057 -8.000013 24.000042
v -31.000029 -8.000015 23.000015
v -24.000042 -8.000013 32.000057
v -23.000015 -8.000015 31.000029
v -24.000042 -8.000015 24.000042
v -23.000015 -8.000013 23.000015
v -32.000057 7.999947 24.000042
v -31.000029 7.999947 23.000015
v -24.000042 7.999947 32.000057
v -23.000015 7.999947 31.000029
v -24.000042 7.999947 24.000042
v -23.000015 7.999947 23.000015
v -32.000057 7.999947 3.888889
v -32.000057 7.999947 0.555557
v -31.000029 7.999947 3.888889
v -31.000029 7.999947 0.555557
v -32.000057 -8.000013 -23.999973
v -31.000029 -8.000015 -22.999947
v -24.000042 -8.000015 -23.999973
v -23.000015 -8.000013 -22.999947
v -23.000015 -8.000015 -30.999962
v -24.000042 -8.000013 -31.999985
v -32.000057 7.999947 -23.999973
v -31.000029 7.999947 -22.999947
v -24.000042 7.999947 -23.999973
v -23.000015 7.999947 -22.999947
v -23.000015 7.999947 -30.999962
v -24.000042 7.999947 -31.999985
v 23.999973 -8.000013 32.000057
v 22.999947 -8.000015 31.000029
v 22.999947 -8.000013 23.000015
v 23.999973 -8.000015 24.000042
v 30.999962 -8.000015 23.000015
v 31.999985 -8.000013 24.000042
v 23.999973 7.999947 32.000057
v 22.999947 7.999947 31.000029
v 22.999947 7.999947 23.000015
v 23.999973 7.999947 24.000042
v 30.999962 7.999947 23.000015
v 31.999985 7.999947 24.000042
v 9.444447 -8.000013 -30.999962
v 9.444447 -8.000013 -31.999985
v 22.999947 -8.000013 -22.999947
v 23.999973 -8.000015 -23.999973
v 22.999947 -8.000015 -30.999962
v 22.777779 -8.000013 -31.999985
v 23.999973 -8.000013 -31.999985
v 30.999962 -8.000015 -22.999947
v 31.999985 -8.000013 -23.999973
v 22.999947 7.999947 -22.999947
v 23.999973 7.999947 -23.999973
v 22.999947 7.999947 -30.999962
v 23.999973 7.999947 -31.999985
v 30.999962 7.999947 -22.999947
v 31.999985 7.999947 -23.999973
vt 0.588130 0.871154
vt 0.588130 0.748077
vt 0.645684 0.748077
vt 0.645684 0.871154
vt 0.703238 0.840384
vt 0.703238 0.717307
vt 0.760792 0.717307
vt 0.760792 0.840384
vt 0.001799 0.072863
vt 0.008993 0.071154
vt 0.008993 0.175427
vt 0.001799 0.175427
vt 0.465828 0.001923
vt 0.580936 0.001923
vt 0.580936 0.371154
vt 0.465828 0.371154
vt 0.523382 0.871154
vt 0.465828 0.871154
vt 0.465828 0.748077
vt 0.523382 0.748077
vt 0.937050 0.001923
vt 0.937050 0.183119
vt 0.937050 0.208760
vt 0.937050 0.355769
vt 0.821942 0.355769
vt 0.821943 0.001923
vt 0.699640 0.375000
vt 0.699640 0.744231
vt 0.584533 0.744231
vt 0.584533 0.589530
vt 0.584533 0.563889
vt 0.584533 0.375000
vt 0.940647 0.251923
vt 0.940647 0.128846
vt 0.998201 0.128846
vt 0.998201 0.251923
vt 0.204037 0.982693
vt 0.228018 0.982693
vt 0.228018 0.990385
vt 0.204037 0.990385
vt 0.588130 0.998077
vt 0.588130 0.875000
vt 0.645684 0.875000
vt 0.645684 0.998077
vt 0.526979 0.871154
vt 0.526979 0.748077
vt 0.584533 0.748077
vt 0.584533 0.871154
vt 0.760792 0.967307
vt 0.703238 0.967307
vt 0.703238 0.844230
vt 0.760792 0.844230
vt 0.059353 0.990385
vt 0.059353 0.928847
vt 0.001799 0.928847
vt 0.001799 0.559616
vt 0.059353 0.559616
vt 0.059353 0.498077
vt 0.404677 0.498077
vt 0.404677 0.559616
vt 0.462231 0.559616
vt 0.462231 0.928847
vt 0.404677 0.928847
vt 0.404677 0.990385
vt 0.397482 0.982693
vt 0.397482 0.921154
vt 0.455036 0.921154
vt 0.455036 0.567308
vt 0.397482 0.567308
vt 0.397482 0.505770
vt 0.066547 0.505770
vt 0.066547 0.567308
vt 0.008993 0.567308
vt 0.008993 0.921154
vt 0.066547 0.921154
vt 0.066547 0.982693
vt 0.944245 0.844230
vt 0.944245 0.967307
vt 0.886691 0.967307
vt 0.886691 0.844230
vt 0.465828 0.375000
vt 0.580936 0.375000
vt 0.580936 0.744231
vt 0.465828 0.744231
vt 0.937050 0.359615
vt 0.937050 0.713461
vt 0.821943 0.713461
vt 0.821942 0.359615
vt 0.008993 0.425000
vt 0.066547 0.425000
vt 0.066547 0.486539
vt 0.397482 0.486539
vt 0.397482 0.425000
vt 0.455036 0.425000
vt 0.455036 0.071154
vt 0.397482 0.071154
vt 0.397482 0.009616
vt 0.066547 0.009616
vt 0.066547 0.071154
vt 0.001799 0.063462
vt 0.059353 0.063462
vt 0.059353 0.001923
vt 0.404677 0.001923
vt 0.404677 0.063462
vt 0.462231 0.063462
vt 0.462231 0.432693
vt 0.404677 0.432693
vt 0.404677 0.494231
vt 0.059353 0.494231
vt 0.059353 0.432693
vt 0.001799 0.432693
vt 0.584533 0.259188
vt 0.584533 0.001923
vt 0.699640 0.001923
vt 0.699640 0.371154
vt 0.584533 0.371154
vt 0.584533 0.361753
vt 0.998201 0.001923
vt 0.998201 0.125000
vt 0.940647 0.125000
vt 0.940647 0.001923
vt 0.825540 0.967307
vt 0.825540 0.844230
vt 0.883094 0.844230
vt 0.883094 0.967307
vt 0.465828 0.998077
vt 0.465828 0.875000
vt 0.523382 0.875000
vt 0.523382 0.998077
vt 0.764389 0.967307
vt 0.764389 0.844230
vt 0.821943 0.844230
vt 0.821943 0.967307
vt 0.818345 0.359615
vt 0.818345 0.713461
vt 0.703238 0.713461
vt 0.703238 0.463888
vt 0.703238 0.359615
vt 0.825540 0.717307
vt 0.883094 0.717307
vt 0.883094 0.840384
vt 0.825540 0.840384
vt 0.821943 0.840384
vt 0.764389 0.840384
vt 0.764389 0.717307
vt 0.821943 0.717307
vt 0.703238 0.355769
vt 0.703238 0.001923
vt 0.818345 0.001923
vt 0.818345 0.355769
vt 0.584533 0.875000
vt 0.584533 0.998077
vt 0.526979 0.998077
vt 0.526979 0.875000
vt 0.886691 0.840384
vt 0.886691 0.717307
vt 0.944245 0.717307
vt 0.944245 0.840384
vn 0.0000 0.0000 -1.0000
vn 1.0000 0.0000 0.0000
vn -0.0000 -1.0000 -0.0000
vn 0.0000 0.0000 1.0000
vn -1.0000 0.0000 0.0000
vn 0.0000 1.0000 0.0000
usemtl palette
s off
f 12/1/1 6/2/1 2/3/1 8/4/1
f 10/5/2 4/6/2 6/7/2 12/8/2
f 46/9/3 45/10/3 41/11/3 42/12/3
f 9/13/4 3/14/4 29/15/4 35/16/4
f 19/17/1 17/18/1 23/19/1 25/20/1
f 24/21/2 16/22/2 15/23/2 8/24/2 2/25/2 18/26/2
f 17/27/5 1/28/5 7/29/5 13/30/5 14/31/5 23/32/5
f 28/33/5 22/34/5 19/35/5 25/36/5
f 15/37/6 16/38/6 14/39/6 13/40/6
f 37/41/5 31/42/5 30/43/5 36/44/5
f 32/45/2 38/46/2 35/47/2 29/48/2
f 33/49/1 31/50/1 37/51/1 39/52/1
f 15/37/6 13/40/6 7/53/6 11/54/6 9/55/6 35/56/6 38/57/6 40/58/6 55/59/6 51/60/6 53/61/6 28/62/6 25/63/6 23/64/6 14/39/6 16/38/6 24/65/6 26/66/6 27/67/6 52/68/6 50/69/6 54/70/6 39/71/6 37/72/6 36/73/6 10/74/6 12/75/6 8/76/6
f 38/77/4 32/78/4 34/79/4 40/80/4
f 49/81/2 55/82/2 40/83/2 34/84/2
f 48/85/5 33/86/5 39/87/5 54/88/5
f 42/12/3 41/11/3 21/89/3 20/90/3 18/91/3 2/92/3 6/93/3 4/94/3 30/95/3 31/96/3 33/97/3 48/98/3 43/99/3 45/10/3 46/9/3 47/100/3 44/101/3 49/102/3 34/103/3 32/104/3 29/105/3 3/106/3 5/107/3 1/108/3 17/109/3 19/110/3 22/111/3
f 42/112/1 22/113/1 28/114/1 53/115/1 47/116/1 46/117/1
f 47/118/2 53/119/2 51/120/2 44/121/2
f 52/122/5 45/123/5 43/124/5 50/125/5
f 55/126/1 49/127/1 44/128/1 51/129/1
f 50/130/4 43/131/4 48/132/4 54/133/4
f 52/134/4 27/135/4 21/136/4 41/137/4 45/138/4
f 5/139/5 3/140/5 9/141/5 11/142/5
f 11/143/4 7/144/4 1/145/4 5/146/4
f 30/147/1 4/148/1 10/149/1 36/150/1
f 26/151/2 20/152/2 21/153/2 27/154/2
f 20/155/4 26/156/4 24/157/4 18/158/4
