# Blender v2.79 (sub 0) OBJ File: ''
# www.blender.org
mtllib tower_window.mtl
o OPT_window.001
v -11.000025 -10.500007 -4.500020
v -11.000025 -9.499999 -4.500020
v -9.000010 -11.500013 -4.500020
v -9.000010 -10.500007 -4.500020
v -8.000004 -12.500021 -4.500020
v -8.000004 -11.500013 -4.500020
v -9.000010 -11.500014 -0.500019
v -9.000010 -10.500008 -0.500019
v -8.000004 -12.500022 -1.500026
v -8.000004 -11.500014 -1.500026
v -9.000010 -9.499999 -4.500020
v -7.000023 -7.500012 -3.500013
v -9.000010 -9.500000 -2.500006
v -7.000023 -7.500012 -2.500005
v -1.000007 -7.500012 -3.500013
v -2.170139 -9.500000 -2.500006
v -2.170139 -7.500012 -2.500006
v -1.000007 -7.500012 -2.500005
v -1.000007 -5.642361 -2.500006
v -11.000025 -10.500009 4.499990
v -11.000025 -9.500001 4.499991
v -9.000010 0.499991 -4.500018
v -8.000004 0.499991 -4.500018
v -7.000023 0.499991 -3.500011
v -9.000010 0.499991 -2.500005
v -8.000004 0.499991 -2.500004
v -7.000023 0.499991 -2.500004
v -8.000004 5.499999 -4.500017
v -7.000023 5.499999 -4.500017
v -8.000004 5.499999 -2.500004
v -7.000023 5.499999 -2.500003
v -7.000023 8.499995 -4.500017
v -7.000023 8.499994 -2.500003
v -6.000016 0.499991 -3.500011
v -6.000016 0.499991 -2.500005
v -6.000016 5.499999 -3.500010
v -5.000009 5.499999 -3.500010
v -6.000016 5.499999 -2.500003
v -5.000009 5.499999 -2.500004
v -6.000016 8.499995 -4.500017
v -5.000009 8.499995 -3.500010
v -6.000016 8.499994 -2.500002
v -5.000009 8.499994 -2.500002
v -6.000016 10.499982 -4.500016
v -4.000002 10.499982 -4.500016
v -4.000002 12.499995 -4.500016
v -6.000016 10.499981 -2.500003
v -4.000002 10.499981 -2.500002
v -4.000002 12.499994 -2.500003
v -3.000021 8.499995 -3.500010
v -3.000021 8.499994 -2.500003
v -3.000021 10.499982 -3.500010
v -1.000007 10.499982 -3.500010
v -3.000021 10.499981 -2.500002
v -1.000007 10.499981 -2.500002
v 0.999981 -7.500012 -3.500013
v 0.999981 -7.500012 -2.500005
v 6.510416 -7.500012 -2.500006
v 0.999981 -4.774305 -2.500005
v 7.999977 -12.500021 -4.500020
v 7.999977 -11.500013 -4.500020
v 8.999983 -11.500013 -4.500020
v 8.999983 -10.500007 -4.500020
v 7.999977 -12.500022 -1.500026
v 7.999977 -11.500014 -1.500026
v 8.999983 -11.500014 -0.500019
v 8.999983 -10.500008 -0.500019
v 6.999996 -7.500012 -3.500013
v 8.999983 -9.499999 -4.500020
v 7.378473 -9.500000 -2.500006
v 6.999996 -7.500012 -2.500005
v 8.999983 -9.500000 -2.500006
v 10.999998 -10.500007 -4.500020
v 10.999998 -9.499999 -4.500020
v 10.999998 -10.500009 4.499990
v 10.999998 -9.500001 4.499991
v 5.999989 0.499991 -3.500011
v 5.999989 0.499991 -2.500005
v 4.999983 5.499999 -3.500010
v 5.999989 5.499999 -3.500010
v 4.999983 5.499999 -2.500004
v 5.999989 5.499999 -2.500003
v 2.999994 8.499995 -3.500010
v 2.999994 8.499994 -2.500003
v 0.999981 10.499982 -3.500010
v 2.999994 10.499982 -3.500010
v 0.999981 10.499981 -2.500002
v 2.999994 10.499981 -2.500002
v 4.999983 8.499995 -3.500010
v 5.999989 8.499995 -4.500017
v 4.999983 8.499994 -2.500002
v 5.999989 8.499994 -2.500002
v 3.999975 10.499982 -4.500016
v 3.999975 12.499995 -4.500016
v 5.999989 10.499982 -4.500016
v 3.999975 10.499981 -2.500002
v 3.999975 12.499994 -2.500003
v 5.999989 10.499981 -2.500003
v 6.999996 0.499991 -3.500011
v 7.999977 0.499991 -4.500018
v 8.999983 0.499991 -4.500018
v 6.999996 0.499991 -2.500004
v 7.999977 0.499991 -2.500004
v 8.999983 0.499991 -2.500005
v 6.999996 5.499999 -4.500017
v 7.999977 5.499999 -4.500017
v 6.999996 5.499999 -2.500003
v 7.999977 5.499999 -2.500004
v 6.999996 8.499995 -4.500017
v 6.999996 8.499994 -2.500003
vt 0.590908 0.984694
vt 0.590908 0.923469
vt 0.611111 0.923469
vt 0.611111 0.984694
vt 0.833333 0.464285
vt 0.833333 0.505102
vt 0.792929 0.505102
vt 0.792929 0.538194
vt 0.792929 0.733064
vt 0.792929 0.872449
vt 0.833333 0.872449
vt 0.833333 0.913265
vt 0.651515 0.913265
vt 0.651515 0.464285
vt 0.055556 0.903061
vt 0.075758 0.903061
vt 0.075758 0.984694
vt 0.055556 0.984694
vt 0.964646 0.188776
vt 0.944444 0.188776
vt 0.944444 0.005102
vt 0.964646 0.005102
vt 0.257577 0.974490
vt 0.237375 0.974490
vt 0.237375 0.954082
vt 0.257577 0.954082
vt 0.419192 0.525510
vt 0.419192 0.852041
vt 0.358586 0.852041
vt 0.358586 0.525510
vt 0.964647 0.464285
vt 0.984849 0.464285
vt 0.984849 0.566326
vt 0.964647 0.566326
vt 0.762626 0.964286
vt 0.742424 0.964286
vt 0.742424 0.923470
vt 0.762626 0.923469
vt 0.156566 0.903061
vt 0.156566 0.943878
vt 0.116162 0.943878
vt 0.116162 0.903061
vt 0.146465 0.045919
vt 0.146465 0.005102
vt 0.308080 0.005102
vt 0.308080 0.045919
vt 0.348485 0.045919
vt 0.348485 0.086735
vt 0.368687 0.086735
vt 0.368687 0.147959
vt 0.388888 0.147959
vt 0.388888 0.250000
vt 0.409090 0.250000
vt 0.409090 0.454081
vt 0.449495 0.454081
vt 0.449495 0.474490
vt 0.409090 0.474490
vt 0.409090 0.494898
vt 0.388888 0.494898
vt 0.388888 0.515306
vt 0.065657 0.515306
vt 0.065657 0.494898
vt 0.045455 0.494898
vt 0.045455 0.474490
vt 0.005050 0.474490
vt 0.005050 0.454081
vt 0.045455 0.454081
vt 0.045455 0.250000
vt 0.065657 0.250000
vt 0.065657 0.147959
vt 0.085859 0.147959
vt 0.085859 0.086735
vt 0.106061 0.086735
vt 0.106061 0.045919
vt 0.641414 0.464285
vt 0.641414 0.913265
vt 0.459596 0.913265
vt 0.459596 0.872449
vt 0.540404 0.872449
vt 0.540404 0.505102
vt 0.459596 0.505102
vt 0.459596 0.464285
vt 0.641414 0.923470
vt 0.641414 0.964286
vt 0.621212 0.964286
vt 0.621212 0.923469
vt 0.803030 0.964286
vt 0.803030 0.923470
vt 0.823232 0.923469
vt 0.823232 0.964286
vt 0.005050 0.964286
vt 0.005051 0.903061
vt 0.045455 0.903061
vt 0.045455 0.964286
vt 0.449495 0.525510
vt 0.449495 0.566327
vt 0.429293 0.566327
vt 0.429293 0.525510
vt 0.934344 0.658163
vt 0.974748 0.658163
vt 0.974748 0.760204
vt 0.934344 0.760204
vt 0.833333 0.372449
vt 0.833333 0.060729
vt 0.833332 0.005102
vt 0.853535 0.005102
vt 0.853535 0.372449
vt 0.207072 0.903061
vt 0.207072 0.943878
vt 0.166667 0.943878
vt 0.166667 0.903061
vt 0.227274 0.974490
vt 0.207071 0.974490
vt 0.207071 0.954082
vt 0.227274 0.954082
vt 0.994950 0.107143
vt 0.974747 0.107143
vt 0.974747 0.005102
vt 0.994950 0.005102
vt 0.873737 0.464285
vt 0.893940 0.464285
vt 0.893940 0.831632
vt 0.873738 0.831632
vt 0.873738 0.793721
vt 0.944444 0.372449
vt 0.964646 0.372449
vt 0.964646 0.433674
vt 0.944444 0.433674
vt 0.843434 0.464285
vt 0.863636 0.464285
vt 0.863636 0.913265
vt 0.843434 0.913265
vt 0.904041 0.964284
vt 0.904041 0.801020
vt 0.944445 0.801020
vt 0.944445 0.964284
vt 0.459596 0.923469
vt 0.500000 0.923469
vt 0.500000 0.964286
vt 0.459596 0.964286
vt 0.924243 0.464285
vt 0.924243 0.790816
vt 0.904041 0.790816
vt 0.904041 0.464285
vt 0.671717 0.923469
vt 0.671717 0.964286
vt 0.651515 0.964286
vt 0.651515 0.923469
vt 0.176768 0.974490
vt 0.176768 0.954082
vt 0.196970 0.954082
vt 0.196970 0.974490
vt 0.681818 0.964286
vt 0.681818 0.923469
vt 0.702020 0.923469
vt 0.702020 0.964286
vt 0.308082 0.943878
vt 0.267678 0.943878
vt 0.267678 0.903061
vt 0.308082 0.903061
vt 0.661615 0.413265
vt 0.685255 0.413265
vt 0.685255 0.454081
vt 0.492354 0.454081
vt 0.509890 0.413265
vt 0.621212 0.413265
vt 0.621212 0.357639
vt 0.661615 0.375354
vt 0.883838 0.005102
vt 0.883838 0.372449
vt 0.863636 0.372449
vt 0.863636 0.005102
vt 0.146465 0.954082
vt 0.166667 0.954082
vt 0.166667 0.994898
vt 0.146465 0.994898
vt 0.429294 0.984694
vt 0.409091 0.984694
vt 0.409091 0.872236
vt 0.409091 0.862245
vt 0.429294 0.862245
vt 0.257576 0.892857
vt 0.136364 0.892857
vt 0.136364 0.729592
vt 0.156566 0.729592
vt 0.156566 0.627551
vt 0.176768 0.627551
vt 0.176768 0.566326
vt 0.217172 0.566326
vt 0.217172 0.525510
vt 0.257576 0.525510
vt 0.267677 0.525510
vt 0.348485 0.525510
vt 0.348485 0.892857
vt 0.267677 0.892857
vt 0.267677 0.872449
vt 0.328283 0.872449
vt 0.328283 0.545919
vt 0.267677 0.545919
vt 0.580807 0.923469
vt 0.580807 0.984694
vt 0.560605 0.984694
vt 0.560605 0.923469
vt 0.106061 0.984694
vt 0.085859 0.984694
vt 0.085859 0.903061
vt 0.106061 0.903061
vt 0.732323 0.923469
vt 0.732323 0.964286
vt 0.712121 0.964286
vt 0.712121 0.923470
vt 0.974748 0.801020
vt 0.974748 0.964285
vt 0.954546 0.964285
vt 0.954546 0.801020
vt 0.934343 0.005102
vt 0.934343 0.209183
vt 0.893939 0.209183
vt 0.893939 0.005102
vt 0.005050 0.525510
vt 0.045455 0.525510
vt 0.045455 0.566326
vt 0.085859 0.566326
vt 0.085859 0.627551
vt 0.106061 0.627551
vt 0.106061 0.729592
vt 0.126263 0.729592
vt 0.126263 0.892857
vt 0.005051 0.892857
vt 0.510101 0.964286
vt 0.510101 0.923469
vt 0.550504 0.923469
vt 0.550504 0.964286
vt 0.833333 0.964286
vt 0.833333 0.923469
vt 0.853536 0.923469
vt 0.853536 0.964286
vt 0.116162 0.994898
vt 0.116162 0.954082
vt 0.136364 0.954082
vt 0.136364 0.994898
vt 0.893939 0.454081
vt 0.893939 0.433673
vt 0.914141 0.433673
vt 0.914141 0.454081
vt 0.873738 0.964286
vt 0.873738 0.865717
vt 0.873737 0.841836
vt 0.893940 0.841836
vt 0.893940 0.964285
vt 0.318183 0.964286
vt 0.318183 0.903061
vt 0.338385 0.903061
vt 0.338385 0.964286
vt 0.257577 0.943878
vt 0.217173 0.943878
vt 0.217173 0.903061
vt 0.257577 0.903061
vt 0.772727 0.964286
vt 0.772727 0.923469
vt 0.792929 0.923469
vt 0.792929 0.964286
vt 0.944444 0.198980
vt 0.964646 0.198980
vt 0.964646 0.362245
vt 0.944444 0.362245
vt 0.449495 0.576531
vt 0.449495 0.617348
vt 0.429293 0.617348
vt 0.429293 0.576531
vt 0.398990 0.862245
vt 0.398990 0.964285
vt 0.358586 0.964285
vt 0.358586 0.862245
vt 0.833332 0.382653
vt 0.873737 0.382653
vt 0.873737 0.443877
vt 0.833332 0.443877
vt 0.823232 0.250000
vt 0.823232 0.454081
vt 0.782828 0.413265
vt 0.782828 0.250000
vt 0.762626 0.250000
vt 0.762626 0.147959
vt 0.742423 0.147959
vt 0.742423 0.086735
vt 0.702020 0.086735
vt 0.702020 0.045919
vt 0.661615 0.045919
vt 0.621212 0.045919
vt 0.580808 0.045919
vt 0.580808 0.086735
vt 0.540404 0.086735
vt 0.540404 0.147959
vt 0.520202 0.147959
vt 0.520202 0.250000
vt 0.499999 0.250000
vt 0.500000 0.413265
vt 0.459596 0.454081
vt 0.459596 0.250000
vt 0.479798 0.250000
vt 0.479798 0.147959
vt 0.499999 0.147959
vt 0.499999 0.086735
vt 0.520202 0.086735
vt 0.520202 0.045919
vt 0.560606 0.045919
vt 0.560606 0.005102
vt 0.722221 0.005102
vt 0.722221 0.045919
vt 0.762626 0.045919
vt 0.762626 0.086735
vt 0.782828 0.086735
vt 0.782828 0.147959
vt 0.803029 0.147959
vt 0.803029 0.250000
vt 0.893939 0.219388
vt 0.934343 0.219388
vt 0.934343 0.423469
vt 0.893939 0.423469
vt 0.934344 0.464285
vt 0.954546 0.464285
vt 0.954546 0.647959
vt 0.934344 0.647959
vn -1.0000 0.0000 0.0000
vn 0.0000 1.0000 0.0000
vn 1.0000 -0.0000 0.0000
vn 0.0000 -1.0000 0.0000
vn 0.0000 0.0000 -1.0000
vn 0.0000 -0.0000 1.0000
usemtl palette
s off
f 5/1/1 9/2/1 10/3/1 6/4/1
f 74/5/2 69/6/2 72/7/2 70/8/2 16/9/2 13/10/2 11/11/2 2/12/2 21/13/2 76/14/2
f 7/15/1 8/16/1 4/17/1 3/18/1
f 73/19/3 74/20/3 76/21/3 75/22/3
f 79/23/4 80/24/4 82/25/4 81/26/4
f 64/27/4 9/28/4 5/29/4 60/30/4
f 82/31/1 80/32/1 77/33/1 78/34/1
f 23/35/2 22/36/2 25/37/2 26/38/2
f 45/39/2 44/40/2 47/41/2 48/42/2
f 45/43/5 46/44/5 94/45/5 93/46/5 95/47/5 90/48/5 109/49/5 105/50/5 106/51/5 100/52/5 101/53/5 69/54/5 74/55/5 73/56/5 63/57/5 62/58/5 61/59/5 60/60/5 5/61/5 6/62/5 3/63/5 4/64/5 1/65/5 2/66/5 11/67/5 22/68/5 23/69/5 28/70/5 29/71/5 32/72/5 40/73/5 44/74/5
f 75/75/4 20/76/4 1/77/4 4/78/4 8/79/4 67/80/4 63/81/4 73/82/4
f 110/83/2 109/84/2 90/85/2 92/86/2
f 83/87/4 89/88/4 91/89/4 84/90/4
f 31/91/1 33/92/1 32/93/1 29/94/1
f 31/95/2 29/96/2 28/97/2 30/98/2
f 30/99/1 28/100/1 23/101/1 26/102/1
f 87/103/3 59/104/3 57/105/3 56/106/3 85/107/3
f 95/108/2 93/109/2 96/110/2 98/111/2
f 36/112/4 37/113/4 39/114/4 38/115/4
f 35/116/3 34/117/3 36/118/3 38/119/3
f 55/120/1 53/121/1 15/122/1 18/123/1 19/124/1
f 91/125/1 89/126/1 79/127/1 81/128/1
f 75/129/6 76/130/6 21/131/6 20/132/6
f 94/133/2 46/134/2 49/135/2 97/136/2
f 42/137/1 47/138/1 44/139/1 40/140/1
f 65/141/6 10/142/6 9/143/6 64/144/6
f 55/145/4 54/146/4 52/147/4 53/148/4
f 34/149/4 35/150/4 27/151/4 24/152/4
f 85/153/4 86/154/4 88/155/4 87/156/4
f 45/157/1 48/158/1 49/159/1 46/160/1
f 18/161/6 17/162/6 16/163/6 70/164/6 58/165/6 57/166/6 59/167/6 19/168/6
f 67/169/6 8/170/6 7/171/6 66/172/6
f 51/173/3 50/174/3 52/175/3 54/176/3
f 56/177/2 57/178/2 58/179/2 71/180/2 68/181/2
f 56/182/6 68/183/6 99/184/6 77/185/6 80/186/6 79/187/6 89/188/6 83/189/6 86/190/6 85/191/6
f 62/192/4 66/193/4 7/194/4 3/195/4 6/196/4 10/197/4 65/198/4 61/199/4
f 61/200/3 65/201/3 64/202/3 60/203/3
f 67/204/3 66/205/3 62/206/3 63/207/3
f 42/208/2 40/209/2 32/210/2 33/211/2
f 99/212/1 68/213/1 71/214/1 102/215/1
f 69/216/3 101/217/3 104/218/3 72/219/3
f 53/220/6 52/221/6 50/222/6 41/223/6 37/224/6 36/225/6 34/226/6 24/227/6 12/228/6 15/229/6
f 95/230/3 98/231/3 92/232/3 90/233/3
f 41/234/4 50/235/4 51/236/4 43/237/4
f 84/238/1 88/239/1 86/240/1 83/241/1
f 99/242/4 102/243/4 78/244/4 77/245/4
f 14/246/2 17/247/2 18/248/2 15/249/2 12/250/2
f 43/251/3 39/252/3 37/253/3 41/254/3
f 94/255/3 97/256/3 96/257/3 93/258/3
f 104/259/2 101/260/2 100/261/2 103/262/2
f 14/263/3 12/264/3 24/265/3 27/266/3
f 108/267/2 106/268/2 105/269/2 107/270/2
f 100/271/3 106/272/3 108/273/3 103/274/3
f 109/275/3 110/276/3 107/277/3 105/278/3
f 25/279/6 13/280/6 16/163/6 17/162/6 14/281/6 27/282/6 35/283/6 38/284/6 39/285/6 43/286/6 51/287/6 54/288/6 55/289/6 19/168/6 59/167/6 87/290/6 88/291/6 84/292/6 91/293/6 81/294/6 82/295/6 78/296/6 102/297/6 71/298/6 58/165/6 70/164/6 72/299/6 104/300/6 103/301/6 108/302/6 107/303/6 110/304/6 92/305/6 98/306/6 96/307/6 97/308/6 49/309/6 48/310/6 47/311/6 42/312/6 33/313/6 31/314/6 30/315/6 26/316/6
f 25/317/1 22/318/1 11/319/1 13/320/1
f 20/321/1 21/322/1 2/323/1 1/324/1
