# Blender v2.79 (sub 0) OBJ File: ''
# www.blender.org
mtllib Trap.mtl
o Cone
v 0.000000 -1.353612 -0.355633
v 0.069381 -1.353612 -0.348799
v 0.136095 -1.353612 -0.328562
v 0.197579 -1.353612 -0.295698
v 0.251470 -1.353612 -0.251470
v 0.295698 -1.353612 -0.197579
v 0.328561 -1.353612 -0.136095
v 0.348799 -1.353612 -0.069381
v 0.355632 -1.353612 -0.000000
v 0.348799 -1.353612 0.069380
v 0.328562 -1.353612 0.136094
v 0.295698 -1.353612 0.197578
v 0.251470 -1.353612 0.251470
v 0.197579 -1.353612 0.295697
v 0.136095 -1.353612 0.328561
v 0.069380 -1.353612 0.348799
v 0.000000 -1.353612 0.355632
v -0.069380 -1.353612 0.348799
v -0.136095 -1.353612 0.328561
v -0.197579 -1.353612 0.295697
v -0.251470 -1.353612 0.251470
v -0.295697 -1.353612 0.197578
v -0.328561 -1.353612 0.136094
v 0.000000 1.353612 0.000000
v -0.348799 -1.353612 0.069380
v -0.355632 -1.353612 -0.000001
v -0.348799 -1.353612 -0.069381
v -0.328561 -1.353612 -0.136095
v -0.295697 -1.353612 -0.197579
v -0.251470 -1.353612 -0.251471
v -0.197578 -1.353612 -0.295698
v -0.136094 -1.353612 -0.328562
v -0.069380 -1.353612 -0.348799
vn 0.0972 0.1296 -0.9868
vn 0.2878 0.1296 -0.9489
vn 0.4674 0.1296 -0.8745
vn 0.6290 0.1296 -0.7665
vn 0.7665 0.1296 -0.6290
vn 0.8745 0.1296 -0.4674
vn 0.9489 0.1296 -0.2878
vn 0.9868 0.1296 -0.0972
vn 0.9868 0.1296 0.0972
vn 0.9489 0.1296 0.2878
vn 0.8745 0.1296 0.4674
vn 0.7665 0.1296 0.6290
vn 0.6290 0.1296 0.7665
vn 0.4674 0.1296 0.8745
vn 0.2878 0.1296 0.9489
vn 0.0972 0.1296 0.9868
vn -0.0972 0.1296 0.9868
vn -0.2878 0.1296 0.9489
vn -0.4674 0.1296 0.8745
vn -0.6290 0.1296 0.7665
vn -0.7665 0.1296 0.6290
vn -0.8745 0.1296 0.4674
vn -0.9489 0.1296 0.2878
vn -0.9868 0.1296 0.0972
vn -0.9868 0.1296 -0.0972
vn -0.9489 0.1296 -0.2878
vn -0.8745 0.1296 -0.4674
vn -0.7665 0.1296 -0.6290
vn -0.6290 0.1296 -0.7665
vn -0.4674 0.1296 -0.8745
vn -0.2878 0.1296 -0.9489
vn -0.0972 0.1296 -0.9868
vn 0.0000 -1.0000 0.0000
usemtl None
s off
f 1//1 24//1 2//1
f 2//2 24//2 3//2
f 3//3 24//3 4//3
f 4//4 24//4 5//4
f 5//5 24//5 6//5
f 6//6 24//6 7//6
f 7//7 24//7 8//7
f 8//8 24//8 9//8
f 9//9 24//9 10//9
f 10//10 24//10 11//10
f 11//11 24//11 12//11
f 12//12 24//12 13//12
f 13//13 24//13 14//13
f 14//14 24//14 15//14
f 15//15 24//15 16//15
f 16//16 24//16 17//16
f 17//17 24//17 18//17
f 18//18 24//18 19//18
f 19//19 24//19 20//19
f 20//20 24//20 21//20
f 21//21 24//21 22//21
f 22//22 24//22 23//22
f 23//23 24//23 25//23
f 25//24 24//24 26//24
f 26//25 24//25 27//25
f 27//26 24//26 28//26
f 28//27 24//27 29//27
f 29//28 24//28 30//28
f 30//29 24//29 31//29
f 31//30 24//30 32//30
f 32//31 24//31 33//31
f 33//32 24//32 1//32
f 1//33 2//33 3//33 4//33 5//33 6//33 7//33 8//33 9//33 10//33 11//33 12//33 13//33 14//33 15//33 16//33 17//33 18//33 19//33 20//33 21//33 22//33 23//33 25//33 26//33 27//33 28//33 29//33 30//33 31//33 32//33 33//33
